<?xml version="1.0" encoding="UTF-8" standalone="no"?>
<!-- Created with Inkscape (http://www.inkscape.org/) -->

<svg
   xmlns:dc="http://purl.org/dc/elements/1.1/"
   xmlns:cc="http://creativecommons.org/ns#"
   xmlns:rdf="http://www.w3.org/1999/02/22-rdf-syntax-ns#"
   xmlns:svg="http://www.w3.org/2000/svg"
   xmlns="http://www.w3.org/2000/svg"
   xmlns:xlink="http://www.w3.org/1999/xlink"
   xmlns:sodipodi="http://sodipodi.sourceforge.net/DTD/sodipodi-0.dtd"
   xmlns:inkscape="http://www.inkscape.org/namespaces/inkscape"
   version="1.1"
   id="svg4747"
   width="800"
   height="755"
   viewBox="0 0 800 755"
   sodipodi:docname="eshd.svg"
   inkscape:version="0.92.3 (2405546, 2018-03-11)">
  <metadata
     id="metadata4753">
    <rdf:RDF>
      <cc:Work
         rdf:about="">
        <dc:format>image/svg+xml</dc:format>
        <dc:type
           rdf:resource="http://purl.org/dc/dcmitype/StillImage" />
        <dc:title></dc:title>
      </cc:Work>
    </rdf:RDF>
  </metadata>
  <defs
     id="defs4751" />
  <sodipodi:namedview
     pagecolor="#ffffff"
     bordercolor="#666666"
     borderopacity="1"
     objecttolerance="10"
     gridtolerance="10"
     guidetolerance="10"
     inkscape:pageopacity="0"
     inkscape:pageshadow="2"
     inkscape:window-width="1920"
     inkscape:window-height="1023"
     id="namedview4749"
     showgrid="false"
     inkscape:zoom="0.55562914"
     inkscape:cx="401.28196"
     inkscape:cy="134.50673"
     inkscape:window-x="0"
     inkscape:window-y="38"
     inkscape:window-maximized="0"
     inkscape:current-layer="svg4747" />
  <image
     sodipodi:absref="/home/steam/Bilder/eshd.xpm"
     xlink:href="eshd.xpm"
     y="0"
     x="0"
     id="image4755"
     style="image-rendering:optimizeQuality"
     preserveAspectRatio="none"
     height="755"
     width="800" />
  <g
     id="g4757">
    <path
       style="fill:#d1d1d1"
       d="m 450.5,751.87671 c -1.1,-0.0121 -8.975,-1.70689 -17.5,-3.76619 -8.525,-2.05931 -17.3,-4.32521 -19.5,-5.03536 -2.2,-0.71014 -9.175,-3.58286 -15.5,-6.38383 -6.325,-2.80098 -13.525,-6.73281 -16,-8.73741 -2.475,-2.0046 -5.625,-4.35501 -7,-5.22312 -1.375,-0.86812 -6.775,-2.3499 -12,-3.29285 -7.76977,-1.40221 -11.59449,-2.80399 -21,-7.69663 -10.46349,-5.443 -13.75328,-6.55212 -36.5,-12.30558 -24.72435,-6.25367 -25.03859,-6.3662 -28.5,-10.206 -1.925,-2.13544 -4.64187,-5.248 -6.03748,-6.91681 -2.03512,-2.4335 -5.15949,-3.89956 -15.78144,-7.40517 l -13.24396,-4.37097 -4.21856,2.24128 c -2.32021,1.2327 -11.409,8.08692 -20.19732,15.2316 C 208.09157,695.67576 200.66178,701 199.39369,701 c -1.18184,0 -2.70701,-0.6726 -3.38927,-1.49467 -0.68226,-0.82207 -1.02758,-2.30878 -0.76737,-3.3038 0.2602,-0.99502 5.95347,-9.32367 12.65171,-18.50812 10.06361,-13.79895 12.0065,-17.02061 11.18752,-18.55088 -0.54511,-1.01854 -11.71922,-12.37979 -24.83137,-25.24721 L 170.40465,610.5 l -8.82434,-20 c -4.85339,-11 -10.18664,-22.475 -11.85167,-25.5 -1.66503,-3.025 -4.06225,-6.62574 -5.32714,-8.00165 -1.2649,-1.37591 -11.12348,-20.47739 -21.90797,-42.44773 C 104.52694,477.94878 102.12796,473.61076 93.838394,462.73419 86.670716,453.32963 84.681911,449.99515 84.26422,446.68192 83.974258,444.38187 83.185125,441.825 82.510593,441 81.836061,440.175 78.970232,434.81621 76.142085,429.09158 72.567821,421.85668 71,417.47448 71,414.71899 c 0,-2.18028 -2.066011,-11.86148 -4.591136,-21.51377 l -4.591136,-17.54962 1.548568,-12.5778 c 0.851712,-6.91779 2.046582,-17.9778 2.655266,-24.5778 0.608684,-6.6 1.771184,-14.91952 2.583334,-18.48783 0.943721,-4.14639 2.401668,-7.45336 4.039778,-9.16318 1.716521,-1.79166 3.02599,-4.88339 3.964407,-9.3602 0.770694,-3.67667 1.736435,-7.22751 2.146091,-7.89076 0.409655,-0.66324 6.959082,-10.05112 14.554281,-20.86195 13.081817,-18.62035 13.793147,-19.87924 13.499997,-23.89179 -0.30406,-4.16198 -0.41102,-4.27498 -6.14228,-6.4893 -3.208053,-1.23946 -8.158053,-4.25621 -10.999998,-6.70388 C 86.825228,233.20344 77.1875,223.99813 68.25,215.19486 56.422403,203.54489 51.999992,198.55087 51.999971,196.84445 c -1.9e-5,-1.48074 -1.289432,-3.37327 -3.5,-5.13708 C 46.574987,190.17142 45,188.32041 45,187.59402 45,186.86762 42.254632,180.6993 38.899183,173.88665 35.543733,167.07399 31.921496,158.125 30.849766,154 c -1.655761,-6.37289 -1.951057,-10.97178 -1.964953,-30.60184 -0.01255,-17.72221 0.351256,-24.59175 1.562283,-29.499999 0.86825,-3.518989 3.935347,-12.831614 6.81577,-20.694723 L 42.5,58.906875 54.5,46.431137 c 9.705801,-10.090586 12.525754,-12.471475 14.75,-12.453438 2.057092,0.01668 2.75,-0.463635 2.75,-1.90627 0,-1.060715 0.707143,-2.635715 1.571429,-3.5 C 74.435714,27.707143 76.786012,27 78.794312,27 80.802612,27 88.98297,25.893217 96.972884,24.540483 104.9628,23.187749 118.475,21.36407 127,20.487864 c 8.525,-0.876206 25.85,-2.88712 38.5,-4.468697 12.65,-1.581578 36.25214,-4.32942 52.44919,-6.1063153 26.05784,-2.8586712 30.146,-3.0891761 35.5,-2.0016133 3.32795,0.6760083 11.81062,3.7623676 18.85038,6.8585766 11.70474,5.147945 13.48773,6.296687 20.84478,13.429828 C 297.56922,32.489839 301.57644,36 302.04929,36 c 0.47285,0 3.28092,2.3625 6.24017,5.25 3.22646,3.148224 7.51404,9.053213 10.7099,14.75 2.9312,5.225 5.51668,9.725 5.74551,10 0.22884,0.275 14.44236,0.98691 31.5856,1.582022 L 387.5,68.664045 408,75.405539 c 11.275,3.707822 21.77193,7.647337 23.32651,8.754478 2.45042,1.745143 2.98264,1.818121 4,0.548476 0.64542,-0.80548 8.72178,-11.41354 17.94747,-23.573468 11.95219,-15.753598 17.49901,-22.290928 19.29619,-22.741992 1.38721,-0.348168 4.86392,-0.424338 7.72602,-0.169266 4.30279,0.383468 16.19856,5.83036 68.70381,31.458433 53.35974,26.045157 63.64271,31.39726 64.39365,33.5158 0.49151,1.38662 0.61802,3.59683 0.28113,4.91157 -0.35084,1.36917 -8.70931,9.86696 -19.56435,19.89043 -10.4235,9.625 -18.97429,17.725 -19.00176,18 -0.0275,0.275 5.67436,3.71438 12.6707,7.64308 6.99635,3.92869 17.27353,9.45231 22.83818,12.2747 7.72418,3.91771 12.04281,6.9591 18.2562,12.85693 7.71634,7.32445 8.13831,7.94712 8.13244,12.00051 -0.006,3.8524 0.59591,4.92244 6.08161,10.81916 5.37781,5.78074 7.64515,9.73123 19.44107,33.87295 l 13.35327,27.32901 2.55893,22.6649 c 1.40741,12.4657 2.55893,23.02391 2.55893,23.4627 0,0.43879 4.59677,4.95063 10.21505,10.02632 5.61828,5.07568 11.85386,10.06457 13.85685,11.08642 2.12068,1.08189 4.16419,3.11908 4.89249,4.87736 0.68789,1.6607 2.14083,3.30197 3.22877,3.64727 1.08794,0.3453 4.57977,3.07046 7.75961,6.05592 4.77,4.4784 6.52863,7.13001 10.05155,15.15544 2.3485,5.35003 5.55828,12.15318 7.13284,15.1181 1.57456,2.96492 2.86284,6.12729 2.86284,7.02749 0,0.9002 0.68739,2.61812 1.52753,3.81759 0.84015,1.19947 4.89015,11.91435 9,23.81085 L 759,431.17669 v 15.83536 c 0,8.70945 -0.48412,18.2322 -1.07581,21.16166 -0.5917,2.92946 -1.69861,8.02629 -2.45982,11.32629 -0.7612,3.3 -2.48718,11.18443 -3.8355,17.52095 -1.34833,6.33653 -3.63939,14.20699 -5.09126,17.48992 -1.45186,3.28292 -3.46505,6.87349 -4.47375,7.97904 -1.00869,1.10555 -2.16815,3.13509 -2.57657,4.51009 -0.40843,1.375 -1.83053,4.37432 -3.16023,6.66515 -1.32971,2.29083 -3.07227,4.70843 -3.87235,5.37244 -0.80009,0.66402 -1.45471,2.06716 -1.45471,3.1181 0,1.05094 -1.07591,4.034 -2.39091,6.62903 -1.315,2.59503 -4.5775,6.56439 -7.25,8.8208 -2.6725,2.25641 -9.35909,9.35087 -14.85909,15.76547 -6.77011,7.89592 -12.14207,13.08812 -16.63203,16.07549 -3.64762,2.42691 -10.39762,6.30655 -15,8.62142 -4.60238,2.31486 -10.84297,5.15907 -13.86797,6.32047 -3.025,1.1614 -10.56213,4.81163 -16.74917,8.11163 l -11.24917,6 -0.20267,7 c -0.11147,3.85 -0.11994,8.5087 -0.0188,10.35266 0.11501,2.09753 -0.81673,5.05999 -2.48882,7.9132 -1.46996,2.5083 -5.72954,8.6496 -9.46574,13.64734 -5.70963,7.63752 -6.79567,9.72154 -6.80933,13.06653 -0.0158,3.86941 -0.77217,4.73564 -27.28653,31.25 L 559.45946,729 h -5.66891 c -5.19284,0 -6.06374,0.34172 -10.37044,4.06914 -2.58583,2.23803 -5.6507,4.67662 -6.81082,5.4191 -1.16011,0.74248 -9.08429,3.4703 -17.60929,6.06183 l -15.5,4.71187 -25.5,1.31839 c -14.025,0.72511 -26.4,1.30849 -27.5,1.29638 z m 30.72231,-54.02552 c 7.42715,0.14312 8.51552,-0.15898 28.47483,-7.90375 11.41389,-4.42892 23.01385,-9.43491 25.77769,-11.12443 2.76384,-1.68952 7.07468,-4.92837 9.57964,-7.19743 2.50496,-2.26907 7.35802,-6.58424 10.78458,-9.58926 3.42656,-3.00502 6.41362,-6.38002 6.63791,-7.5 0.2243,-1.11998 0.66197,-3.63234 0.9726,-5.58302 0.38459,-2.4151 2.39708,-5.61752 6.30761,-10.03712 3.15856,-3.56973 6.51348,-8.04871 7.45539,-9.9533 0.94998,-1.92092 3.33039,-13.927 5.34584,-26.96288 2.86502,-18.53089 4.10983,-24.24008 5.88695,-27 1.59211,-2.47259 3.69219,-4.01516 7.15416,-5.25495 2.69527,-0.96522 6.61837,-1.75272 8.71801,-1.75 2.32471,0.003 11.12312,-2.77691 22.5,-7.10906 10.27536,-3.91271 20.25748,-8.03096 22.18248,-9.15168 1.925,-1.12072 5.75,-4.16352 8.5,-6.76179 2.75,-2.59826 7.475,-6.2914 10.5,-8.20696 3.025,-1.91556 7.92129,-6.13395 10.88065,-9.3742 2.95936,-3.24025 7.79111,-9.71636 10.73723,-14.39136 4.02734,-6.39073 5.35974,-9.44364 5.36935,-12.3027 0.007,-2.09149 2.24247,-11.42424 4.96765,-20.73944 l 4.95488,-16.93674 -2.58507,-21.74731 -2.58507,-21.74731 -7.00163,-15.91308 c -3.85089,-8.7522 -8.00962,-17.39846 -9.24162,-19.2139 -1.23199,-1.81545 -6.91017,-8.24962 -12.61818,-14.29815 L 660.5,359.10404 l -14.9905,-6.88313 -14.99049,-6.88313 -4.00951,4.28452 C 624.30428,351.97878 598.875,373.40024 570,397.22553 541.125,421.05083 468.19133,481.34304 407.92517,531.20823 336.87644,589.99509 297.40478,623.30105 295.66098,625.9361 294.18184,628.17125 292.52801,630 291.98581,630 291.44362,630 291,630.45532 291,631.01182 c 0,0.6073 1.4992,0.77623 3.75,0.42253 2.0625,-0.32411 13.2,-0.92563 24.75,-1.33671 19.63576,-0.69887 21.50194,-0.93267 28.72639,-3.59889 7.36032,-2.71635 7.81708,-2.76938 9.64043,-1.11927 1.05273,0.9527 3.34857,4.29456 5.10188,7.42635 1.7533,3.13179 4.67507,8.06134 6.4928,10.95454 1.81774,2.8932 8.68087,10.7682 15.2514,17.5 6.57053,6.7318 14.71514,14.56209 18.09913,17.40066 5.64484,4.73501 7.66059,5.65975 24.42034,11.20296 17.35334,5.73954 18.96833,6.08689 32.26763,6.94017 7.7,0.49402 17.47504,0.96519 21.72231,1.04703 z m -224.0149,-80.47938 c 0.54348,-0.33588 2.18696,-2.50105 3.65219,-4.81148 1.46523,-2.31042 35.37658,-45.34417 75.35856,-95.63055 39.98198,-50.28638 75.68027,-96.02898 79.32954,-101.65023 l 6.63503,-10.22045 -2.21003,-6.77955 c -1.21551,-3.72875 -2.71912,-7.26721 -3.34136,-7.86323 -0.62224,-0.59603 -4.50634,-2.49861 -8.63134,-4.22795 -5.8579,-2.45585 -15.38209,-4.57478 -43.5,-9.67785 -19.8,-3.59347 -58.87759,-10.7292 -86.83909,-15.85718 -34.48296,-6.32398 -51.12722,-9.7788 -51.73469,-10.73847 -0.49258,-0.77818 -0.90249,-2.86027 -0.91091,-4.62687 -0.0131,-2.7504 5.18674,-9.57672 36.18246,-47.5 19.90877,-24.3584 40.72127,-49.14628 46.25,-55.08418 5.52873,-5.9379 10.05223,-11.273 10.05223,-11.85579 0,-0.58278 -6.2623,-3.86456 -13.91622,-7.29285 -12.17875,-5.45501 -14.48852,-6.88007 -18.5,-11.41404 -4.41986,-4.99554 -4.76934,-5.18009 -9.77268,-5.16097 l -5.1889,0.0198 -16.90532,16.46296 -16.90532,16.46295 -32.28759,13.59489 -32.28759,13.59489 -16.61819,14.63768 c -9.14,8.05072 -16.76436,14.73336 -16.94301,14.85031 -0.17865,0.11694 -1.89807,4.41645 -3.82093,9.55447 -2.56019,6.84101 -4.58489,10.46045 -7.56322,13.52036 -3.26205,3.35138 -4.23286,5.227 -4.90444,9.47539 -0.46053,2.91329 -1.30054,14.98297 -1.8667,26.8215 -0.56615,11.83853 -1.27875,23.01974 -1.58355,24.84713 -0.40881,2.45096 1.07117,8.22206 5.64182,22 3.40779,10.27261 6.80645,19.88709 7.55256,21.36552 0.74612,1.47843 5.7032,7.32843 11.01574,13 5.31255,5.67157 10.37791,11.48101 11.25636,12.90987 0.87845,1.42885 4.07218,4.84299 7.09718,7.58698 3.22278,2.92338 9.22637,6.77146 14.5,9.29396 4.95,2.3677 11.77841,5.55695 15.17424,7.08721 3.39583,1.53027 6.6512,3.6735 7.23414,4.76274 0.64859,1.2119 1.29554,15.05328 1.66712,35.66808 l 0.60723,33.68764 7.8052,16.66674 c 4.29286,9.16671 8.31465,18.55873 8.93733,20.87115 1.00792,3.74314 2.40002,5.1684 12.68878,12.991 6.35617,4.83262 14.94259,11.14514 19.08095,14.02784 4.13836,2.88269 7.96895,4.96644 8.51242,4.63055 z M 621.072,325.4555 c 0.5104,-0.31544 0.928,-1.00188 0.928,-1.52542 0,-0.52353 0.96652,-3.00806 2.14782,-5.52118 1.94963,-4.14764 2.08832,-5.61117 1.50298,-15.85986 -0.35467,-6.20981 -1.26503,-12.81122 -2.02302,-14.6698 -0.75798,-1.85858 -1.68834,-6.6597 -2.06745,-10.66914 -0.52652,-5.56837 -1.84312,-9.90004 -5.5752,-18.34259 -2.68724,-6.07897 -5.60616,-13.22119 -6.48649,-15.8716 -1.31591,-3.96183 -3.69086,-6.83558 -13.35301,-16.15741 -6.46383,-6.23618 -15.1034,-13.96762 -19.19903,-17.181 C 572.85097,206.44413 564.1,200.92015 557.5,197.38201 l -12,-6.433 -7.58949,0.27549 -7.58949,0.2755 -36.70086,37.75539 -36.70087,37.75539 0.29035,8.07056 0.29036,8.07055 8.5,5.36492 8.5,5.36492 70.87291,13.63768 c 38.9801,7.50073 71.47547,13.86891 72.21193,14.15152 0.73646,0.28261 1.61355,1.3788 1.94909,2.43597 0.33553,1.05718 1.02766,1.66405 1.53807,1.3486 z M 365.07742,170.9481 c 0.90893,0.0299 8.18025,-8.61607 17.15812,-20.4019 11.11702,-14.59403 15.24892,-20.72685 14.42259,-21.40687 -0.63697,-0.52418 -7.27193,-2.57292 -14.74436,-4.55276 l -13.58623,-3.5997 -22.41377,1.02766 c -17.74854,0.81375 -23.09156,1.38352 -25.67016,2.7374 -1.79101,0.94037 -3.14101,2.03414 -3,2.43061 0.14102,0.39647 10.60639,10.39424 23.25639,22.21725 12.65,11.82302 23.70984,21.51976 24.57742,21.54831 z m -176.75223,-22.98712 9.8252,0.039 5.45433,-4.25 c 3.83745,-2.99013 5.73982,-5.28754 6.41737,-7.75 0.52967,-1.925 1.58215,-6.02428 2.33885,-9.1095 0.97448,-3.97317 1.07582,-6.16098 0.34738,-7.5 -0.56564,-1.03978 -3.95405,-5.603 -7.5298,-10.1405 l -6.50136,-8.25 -9.58858,0.0307 c -7.55994,0.0242 -10.73495,0.50025 -15.00699,2.25 l -5.41841,2.21928 -3.02628,8.56554 -3.02628,8.56554 3.80697,10.14923 c 3.46763,9.24455 4.1758,10.37173 7.94469,12.64544 3.64907,2.20141 5.29804,2.50082 13.96291,2.53523 z"
       id="path4771"
       inkscape:connector-curvature="0" />
    <path
       style="fill:#adadad"
       d="m 450.5,750.83336 c -1.65,-0.0359 -3.9,-0.27851 -5,-0.53903 -1.1,-0.26051 -8.99785,-2.1722 -17.55078,-4.24818 -11.18638,-2.71518 -19.18502,-5.40277 -28.5,-9.57616 -7.70583,-3.45245 -15.17628,-7.61036 -18.44922,-10.26849 -3.025,-2.45676 -6.4,-4.8408 -7.5,-5.29787 -1.1,-0.45707 -6.05,-1.55163 -11,-2.43235 -7.26865,-1.29326 -11.19206,-2.74931 -20.39494,-7.56896 -10.46401,-5.48012 -13.4051,-6.46673 -36,-12.07643 -17.45878,-4.33454 -25.28495,-6.72118 -26.94596,-8.21733 -1.28749,-1.15971 -3.88946,-4.21357 -5.78216,-6.78636 -3.34951,-4.55306 -3.81884,-4.80363 -17.60054,-9.39672 l -14.15928,-4.71893 -4.05856,2.15639 c -2.23221,1.18602 -11.25856,8.03911 -20.05856,15.22908 -8.8,7.18997 -16.56823,13.31097 -17.26273,13.60221 -0.69451,0.29123 -1.93201,-0.0259 -2.75,-0.7048 -0.818,-0.67888 -1.48727,-1.98771 -1.48727,-2.90852 0,-0.92081 5.63884,-9.41942 12.53076,-18.88581 10.28287,-14.12402 12.35512,-17.53982 11.55163,-19.04116 -0.53853,-1.00624 -11.73585,-12.37893 -24.88294,-25.27264 l -23.9038,-23.44311 -9.28242,-20.9691 C 156.9079,577.93609 151.59274,566.475 150.20177,564 c -1.39097,-2.475 -3.56068,-5.62904 -4.82157,-7.00897 -1.2609,-1.37994 -11.11341,-20.47378 -21.89447,-42.43077 -18.134,-36.93219 -20.30899,-40.8539 -29.043823,-52.36867 C 86.338557,451.50928 85,449.20305 85,445.92388 c 0,-2.68955 -0.74021,-4.61954 -2.5,-6.51838 -1.375,-1.48365 -2.5,-3.27882 -2.5,-3.98926 0,-0.71044 -1.79367,-4.58223 -3.985934,-8.60398 -2.682967,-4.92194 -3.990533,-8.57817 -4,-11.18484 -0.0077,-2.12992 -2.08984,-11.80492 -4.626897,-21.5 C 63.526064,379.37264 62.876497,375.6037 63.401218,371 c 0.344784,-3.025 1.51229,-14.05 2.594458,-24.5 1.082168,-10.45 2.486984,-21.86647 3.121814,-25.36994 0.829573,-4.57821 1.993516,-7.32583 4.138035,-9.76831 2.174779,-2.47693 3.339192,-5.26352 4.294538,-10.27737 1.033889,-5.42605 2.23941,-8.11519 5.70754,-12.73169 2.418242,-3.21898 8.974562,-12.43662 14.5696,-20.48365 C 107.0572,254.59406 108,252.82017 108,248.7288 v -4.50927 l -6.41781,-2.26568 c -4.698165,-1.6586 -8.126324,-3.83752 -12.794034,-8.13182 C 85.281237,230.59565 75.794253,221.50345 67.70597,213.61714 55.483812,201.70018 52.998932,198.79041 52.993677,196.3892 c -0.0047,-2.1594 -0.762597,-3.31954 -3.000334,-4.59288 -1.646707,-0.93703 -3.490912,-2.96203 -4.098233,-4.5 C 45.287789,185.75834 41.935887,178.425 38.446439,171 c -3.489448,-7.425 -6.865187,-16.16402 -7.501643,-19.42004 -0.679587,-3.47668 -1.143792,-15.47513 -1.124724,-29.07112 0.02498,-17.81335 0.40208,-24.633334 1.635565,-29.579962 0.881703,-3.535883 3.893152,-12.557507 6.692108,-20.048053 L 43.236757,59.26165 54.700538,47.130825 C 65.006392,36.225302 66.509545,35 69.582159,35 72.481935,35 73,34.651374 73,32.7 c 0,-1.265 0.54,-2.84 1.2,-3.5 0.66,-0.66 2.560298,-1.2 4.222884,-1.2 1.662586,0 9.560086,-1.106783 17.55,-2.459517 C 103.9628,24.187749 117.475,22.36407 126,21.487864 c 8.525,-0.876206 25.85,-2.890032 38.5,-4.475168 12.65,-1.585137 36.59059,-4.35895 53.20131,-6.164029 26.34502,-2.8629001 30.94173,-3.1295592 36,-2.0883912 3.18928,0.6564639 11.53217,3.7496802 18.53975,6.8738132 11.60584,5.174135 13.45889,6.379037 20.79752,13.523077 C 297.46964,33.470725 301.54509,37 302.09514,37 c 0.55005,0 3.14204,2.141937 5.75996,4.75986 2.61792,2.617923 7.36897,9.367923 10.55788,15 3.1889,5.632077 5.86304,10.303939 5.94252,10.381916 0.0795,0.07798 14.5445,0.676176 32.1445,1.329331 l 32,1.187556 20.5,6.773973 c 11.87563,3.924156 21.4747,7.671669 22.81684,8.907781 l 2.31685,2.133806 1.97072,-2.487111 C 437.1883,83.6192 445.49843,72.7125 454.57137,60.75 L 471.06762,39 h 6.45618 c 6.4357,0 6.65849,0.09863 70.20752,31.081463 35.06324,17.094805 64.08585,31.607307 64.4947,32.249997 0.40884,0.6427 0.75025,2.52074 0.75867,4.17343 0.0134,2.622 -2.43754,5.2893 -19.23469,20.93293 -10.5875,9.86043 -19.37665,18.22569 -19.53145,18.58947 -0.1548,0.36378 5.2452,3.82377 12,7.68887 6.7548,3.86509 17.23145,9.55064 23.28145,12.63453 8.01198,4.08399 13.10519,7.53627 18.75,12.70912 7.43879,6.81684 7.75,7.28049 7.75,11.54633 0,4.05397 0.53271,5.01694 6.06537,10.96413 5.33527,5.73502 7.68196,9.81427 19.49552,33.8891 l 13.43015,27.36929 2.50448,22.13173 C 678.87298,297.13284 680,307.69456 680,308.43087 c 0,0.73632 4.8375,5.72602 10.75,11.08822 5.9125,5.36219 12.18749,10.43545 13.94442,11.27389 1.75693,0.83844 3.73281,2.82424 4.39085,4.41289 0.65804,1.58864 2.46358,3.54371 4.01231,4.34459 1.54873,0.80088 5.03803,3.5031 7.754,6.00494 3.95777,3.64572 5.88,6.67266 9.68232,15.2467 2.6093,5.88384 5.80661,12.53744 7.10514,14.78576 1.29853,2.24832 2.36096,4.8101 2.36096,5.69284 0,0.88274 0.87741,3.0932 1.9498,4.91214 1.07239,1.81894 5.12239,12.46537 9,23.65873 L 758,430.20314 v 16.82214 c 0,9.25218 -0.48412,19.21897 -1.07581,22.14843 -0.5917,2.92946 -1.70359,8.02629 -2.47088,11.32629 -0.76728,3.3 -2.36177,10.725 -3.54331,16.5 -1.18153,5.775 -3.59238,13.65 -5.35744,17.5 -1.76507,3.85 -3.96146,7.6176 -4.88088,8.37244 -0.91943,0.75485 -1.67168,2.05007 -1.67168,2.87828 0,0.8282 -1.35286,3.87038 -3.00635,6.76038 -1.65349,2.89 -3.67849,5.81238 -4.5,6.49417 -0.82151,0.68179 -1.49365,2.26699 -1.49365,3.52267 0,1.25568 -1.00966,4.17462 -2.24369,6.48654 -1.23403,2.31191 -3.99854,5.59334 -6.14334,7.29205 -2.1448,1.69872 -8.79921,8.70636 -14.78757,15.57255 -7.25314,8.31636 -13.10901,13.97397 -17.54112,16.94725 -3.65926,2.45481 -10.73269,6.48786 -15.71874,8.96234 -4.98605,2.47448 -11.09054,5.22825 -13.56554,6.11949 -2.475,0.89124 -9.7875,4.44477 -16.25,7.89673 l -11.75,6.27629 -0.13978,7.70941 c -0.0769,4.24018 -0.0461,9.31625 0.0684,11.28016 0.13029,2.2341 -0.37889,4.05801 -1.36022,4.87244 -0.86265,0.71593 -1.56845,1.72665 -1.56845,2.24603 0,0.51939 -3.59304,5.75179 -7.98454,11.62756 -6.85132,9.16699 -7.98673,11.25191 -8,14.69017 -0.0151,3.90601 -0.68926,4.67819 -26.76546,30.65571 l -26.75,26.64877 -6.10263,0.39743 c -5.66561,0.36898 -6.52496,0.76309 -12,5.50341 -5.46991,4.73587 -7.02087,5.44822 -21.39737,9.82782 l -15.5,4.72185 -25.5,1.31839 c -14.025,0.72511 -26.85,1.28898 -28.5,1.25303 z m 31,-51.98954 c 6.56531,0.13839 8.35159,-0.37872 28.76544,-8.32728 11.971,-4.66116 24.121,-9.99652 27,-11.85636 2.87901,-1.85983 6.8761,-4.90671 8.88243,-6.77085 2.00634,-1.86413 5.456,-5.0333 7.66592,-7.04259 2.20993,-2.00929 4.64555,-4.03429 5.41249,-4.5 0.76693,-0.46571 2.15477,-1.95937 3.08408,-3.31925 0.9293,-1.35987 1.68964,-4.11169 1.68964,-6.11514 0,-2.2026 0.86554,-4.78309 2.18943,-6.52749 1.20419,-1.58667 4.01669,-4.90986 6.25,-7.38486 2.23331,-2.475 4.81437,-6.075 5.73567,-8 0.92131,-1.925 3.34337,-14.29431 5.38236,-27.48736 2.35167,-15.2162 4.29876,-24.83825 5.3249,-26.31438 0.8897,-1.27986 3.56745,-3.19804 5.95055,-4.26264 2.38309,-1.06459 6.20809,-1.934 8.5,-1.93201 2.78256,0.002 10.81216,-2.52917 24.16709,-7.61943 11,-4.19267 20.71043,-8.2443 21.57874,-9.00361 0.86831,-0.75931 2.01448,-1.38057 2.54705,-1.38057 0.53257,0 2.74714,-1.85329 4.92126,-4.11843 2.17412,-2.26514 6.87795,-6.02743 10.45295,-8.36066 3.575,-2.33322 8.93795,-6.74569 11.91766,-9.80547 2.97972,-3.05979 5.85274,-6.38499 6.3845,-7.38935 0.53176,-1.00435 2.99357,-4.94357 5.47068,-8.75382 3.42267,-5.26469 4.56276,-8.02533 4.74925,-11.5 0.13498,-2.51475 2.48953,-12.22227 5.23234,-21.57227 l 4.98692,-17 -2.69782,-22 -2.69782,-22 -6.97076,-15.5 c -3.83392,-8.525 -7.8492,-16.88773 -8.92285,-18.58384 -1.07366,-1.69611 -6.9021,-8.30321 -12.9521,-14.68244 l -11,-11.5986 -15.23701,-6.99018 -15.237,-6.99018 -1.99913,2.80752 c -1.09953,1.54414 -12.01787,11.09655 -24.263,21.22758 C 591.51874,378.3209 518.725,438.49344 442,501.90663 365.275,565.31982 300.7826,619.07009 298.68355,621.35167 c -2.09905,2.28158 -4.97047,5.41691 -6.38093,6.9674 -1.41046,1.55049 -2.16806,3.15895 -1.68355,3.57434 0.48451,0.4154 5.15593,0.42659 10.38093,0.0249 5.225,-0.40172 15.53912,-0.77267 22.92027,-0.82434 12.41519,-0.0869 14.12447,-0.33734 22.82291,-3.34394 l 9.40263,-3.25 2.30881,2.86808 c 1.26984,1.57744 3.30095,4.72744 4.51357,7 1.21262,2.27255 3.68333,6.49075 5.49046,9.37377 1.80713,2.88301 8.89198,10.98301 15.7441,18 6.85213,7.01698 15.01901,14.93205 18.14863,17.58904 5.13821,4.36225 7.52564,5.44452 24.61022,11.15627 18.19972,6.08457 19.46474,6.36123 33.2292,7.26724 7.87006,0.51803 17.4592,1.00827 21.3092,1.08942 z M 257.82278,617.74631 c 0.83534,-0.68547 2.68477,-3.07791 4.10984,-5.31653 1.42507,-2.23862 35.30356,-45.21362 75.28554,-95.5 39.98198,-50.28638 75.63568,-95.96066 79.23044,-101.49841 l 6.53594,-10.06863 -2.62157,-7.79719 -2.62158,-7.79719 -7.6207,-3.50421 c -5.83536,-2.68326 -11.95475,-4.30417 -26.12069,-6.91887 -10.175,-1.87807 -49.325,-9.0642 -87,-15.96918 -37.675,-6.90498 -69.0625,-13.01947 -69.75,-13.58775 -0.6875,-0.56828 -1.25,-2.54824 -1.25,-4.39991 0,-2.94518 4.53237,-8.90772 36.20361,-47.62755 19.91199,-24.34349 40.72449,-49.11195 46.25,-55.04103 5.52552,-5.92908 10.1683,-11.32908 10.3173,-12 0.15793,-0.71112 -5.80844,-3.91316 -14.30625,-7.67789 -13.18346,-5.84059 -15.00942,-6.964 -19.09824,-11.75 C 280.95405,206.12723 280.71691,206 275.50296,206 h -5.34239 l -17.33028,16.75716 -17.33029,16.75716 -32,13.42549 -32,13.42549 -17,14.96338 -17,14.96339 -3.72509,9.60396 c -2.40613,6.20347 -4.76854,10.54804 -6.67211,12.27028 -1.62086,1.46647 -3.63553,3.7171 -4.47704,5.00141 -1.056,1.61165 -1.86459,7.13674 -2.60995,17.83369 -0.59396,8.52422 -1.4617,21.57359 -1.9283,28.99859 l -0.84836,13.5 6.94085,21.1818 6.94085,21.18181 11.43529,12.31819 c 6.28941,6.77501 11.43722,12.78059 11.43958,13.34574 0.002,0.56515 2.77286,3.46455 6.15669,6.44312 3.38382,2.97856 9.79632,7.18723 14.25,9.35259 4.45367,2.16535 11.30109,5.40096 15.21649,7.19024 3.91539,1.78928 7.39938,3.70707 7.7422,4.26177 0.34282,0.55469 0.90448,16.4098 1.24814,35.23357 l 0.62484,34.22504 7.96289,16.93988 c 4.3796,9.31693 8.5058,18.81499 9.16933,21.10679 1.05779,3.65349 2.68057,5.30063 13.17007,13.36778 6.58,5.06048 15.29452,11.48314 19.36561,14.27258 6.15372,4.21642 7.65812,4.86154 8.9208,3.82541 z M 621.072,327.4555 c 0.5104,-0.31544 0.928,-1.02484 0.928,-1.57644 0,-0.5516 1.1873,-3.51265 2.63844,-6.58011 2.53032,-5.34867 2.6108,-6.03939 1.9641,-16.85639 -0.37088,-6.20355 -1.28454,-12.55345 -2.03035,-14.11087 -0.74582,-1.55743 -1.6626,-6.20669 -2.03729,-10.33169 -0.54023,-5.94753 -1.86874,-10.29445 -6.41801,-21 -3.15521,-7.425 -6.15979,-14.73399 -6.67682,-16.2422 -0.51704,-1.50821 -5.06337,-6.90821 -10.10295,-12 -5.03959,-5.09179 -13.81459,-13.01659 -19.5,-17.61066 -6.25463,-5.05403 -15.06804,-10.87932 -22.3161,-14.75 C 545.74845,190.11022 545.40811,190 537.76842,190 h -7.77363 l -3.74739,4.24823 c -2.06107,2.33653 -18.7099,19.62687 -36.9974,38.42297 L 456,266.84594 v 8.09946 8.09946 l 8.73542,5.69403 8.73542,5.69404 71.39511,13.76942 c 39.2673,7.57318 71.99394,14.2664 72.72585,14.87384 0.73191,0.60743 1.60557,1.97032 1.94147,3.02864 0.3359,1.05831 1.02832,1.66612 1.53873,1.35067 z M 365.18994,171.94756 c 1.05179,0.0326 7.05136,-7.02795 15.88783,-18.69756 7.80884,-10.3125 14.81086,-19.24961 15.56006,-19.86024 0.74919,-0.61064 1.36217,-2.05579 1.36217,-3.21146 0,-1.58682 -0.91802,-2.34161 -3.75,-3.08321 -2.0625,-0.5401 -8.86847,-2.34089 -15.12439,-4.00174 l -11.37439,-3.01974 -22.45707,1.04498 c -19.66188,0.91492 -22.88781,1.29913 -25.91773,3.08683 -1.90337,1.12301 -3.32921,2.42884 -3.16854,2.90183 0.16066,0.473 10.86712,10.74377 23.79212,22.82394 12.925,12.08016 24.26047,21.98753 25.18994,22.01637 z M 188.33445,148.981 l 9.83446,0.019 5.88814,-4.62599 c 3.23848,-2.54429 6.1045,-5.35679 6.36892,-6.25 0.26442,-0.89321 1.17675,-4.68943 2.0274,-8.43606 0.85065,-3.74663 1.54663,-7.64854 1.54663,-8.67092 0,-1.02237 -3.40442,-6.16945 -7.56538,-11.43795 L 198.86924,100 h -9.08195 c -6.8294,0 -10.56089,0.53925 -15.04481,2.17417 -5.25582,1.91637 -6.16714,2.65746 -7.6856,6.25 -0.9475,2.24171 -2.53125,6.35334 -3.51943,9.13696 l -1.79671,5.06113 3.87963,10.31768 c 3.59678,9.56543 4.20771,10.52562 8.37963,13.16986 4.15418,2.63301 5.25576,2.85366 14.33445,2.8712 z"
       id="path4769"
       inkscape:connector-curvature="0" />
    <path
       style="fill:#949494"
       d="m 450.5,749.87384 c -2.75,-0.0137 -11.075,-1.48833 -18.5,-3.27698 -7.425,-1.78866 -15.3,-3.82827 -17.5,-4.53248 -2.2,-0.70421 -9.175,-3.56503 -15.5,-6.35738 -6.5509,-2.89208 -14.55176,-7.37167 -18.59122,-10.40901 -6.60418,-4.96579 -7.79641,-5.46637 -17.35872,-7.28845 -8.46115,-1.61226 -12.22757,-2.9852 -21.40878,-7.80397 -10.11261,-5.30761 -13.31104,-6.38521 -34.64128,-11.67115 -12.925,-3.203 -24.49891,-6.32652 -25.7198,-6.94115 -1.2209,-0.61464 -4.38076,-3.81206 -7.02191,-7.10539 -4.73211,-5.90059 -4.97672,-6.04884 -16.7802,-10.16976 -6.58795,-2.30004 -13.33613,-4.21254 -14.99596,-4.25 -1.71506,-0.0387 -4.73693,1.09223 -7,2.61977 -2.19017,1.47834 -10.88351,8.25385 -19.31853,15.05669 -8.43503,6.80283 -16.03679,12.23078 -16.89282,12.0621 -0.85603,-0.16867 -1.99974,-1.01078 -2.54158,-1.87135 -0.76895,-1.22128 1.79329,-5.38274 11.67526,-18.96231 6.96322,-9.56871 12.53331,-17.93903 12.37798,-18.60072 -0.15534,-0.66168 -6.84666,-7.87863 -14.86959,-16.03768 -8.02293,-8.15904 -19.04793,-19.12987 -24.5,-24.37963 L 171.5,610.40998 165.08415,595.45499 c -3.52872,-8.22524 -8.40369,-19.10276 -10.83326,-24.17225 -2.42957,-5.06949 -5.79774,-10.91949 -7.48481,-13 C 145.079,556.20223 134.95256,536.725 124.26287,515 106.61957,479.14295 103.95889,474.33737 95.413536,462.89375 87.644261,452.48942 86,449.66444 86,446.72047 c 0,-2.34587 -0.855864,-4.58416 -2.5,-6.5381 -1.375,-1.6341 -2.5,-3.32207 -2.5,-3.75106 0,-0.42899 -1.774566,-4.22664 -3.943481,-8.43923 -2.420097,-4.70044 -4.19514,-9.75163 -4.594934,-13.07566 -0.3583,-2.97903 -2.453835,-12.37944 -4.656745,-20.88979 -3.301082,-12.75284 -3.92243,-16.62088 -3.534012,-22 C 64.530031,368.43698 65.710764,356.275 66.89468,345 c 1.183916,-11.275 2.609654,-22.75 3.168308,-25.5 0.584512,-2.87729 2.294202,-6.59396 4.027142,-8.75454 2.050265,-2.55621 3.349835,-5.67581 4.071748,-9.77418 0.583187,-3.3108 2.063841,-7.47126 3.290342,-9.24546 1.226501,-1.7742 7.709833,-11.05567 14.407405,-20.62549 6.697575,-9.56982 12.442855,-18.45732 12.767295,-19.75 0.32444,-1.29268 0.3037,-3.49063 -0.0461,-4.88434 -0.36692,-1.46192 -1.78779,-3.00949 -3.35841,-3.65788 -1.49732,-0.61813 -4.97241,-2.12236 -7.72241,-3.34272 -2.75,-1.22037 -7.7,-4.83376 -11,-8.02975 -3.3,-3.196 -11.9625,-11.55277 -19.25,-18.57062 C 56.853565,202.85329 54,199.5398 54,197.47949 c 0,-1.79832 -1.260568,-3.75747 -4,-6.2167 -2.2,-1.97499 -4,-4.13057 -4,-4.79019 0,-0.65962 -2.741426,-6.76959 -6.092059,-13.57771 -3.350632,-6.80812 -6.885196,-15.55228 -7.854586,-19.43146 -1.505725,-6.02542 -1.710409,-10.6865 -1.404824,-31.9907 0.300593,-20.9561 0.670495,-26.058063 2.316817,-31.955186 C 34.04286,85.657895 36.923869,77.325 39.367589,71 c 3.751508,-9.7099 5.430742,-12.641425 10.78777,-18.832767 3.489553,-4.033022 8.462863,-9.320522 11.0518,-11.75 C 64.49277,37.333991 66.772848,36 68.757159,36 70.320722,36 72.14,35.46 72.8,34.8 73.46,34.14 74,32.565 74,31.3 74,29.463128 74.54828,29 76.722884,29 c 1.497586,0 9.260086,-1.106783 17.25,-2.459517 C 101.9628,25.187749 115.475,23.372607 124,22.506835 c 8.525,-0.865772 22.25,-2.457899 30.5,-3.538059 8.25,-1.08016 33.0222,-3.973108 55.04934,-6.428773 37.52261,-4.183156 40.39322,-4.374604 45.5,-3.0345033 2.99786,0.7866873 10.8325,3.8072773 17.41031,6.7124213 10.2633,4.532873 13.12627,6.345873 20.18464,12.782079 4.52375,4.125 10.7059,9.657979 13.73811,12.295508 3.91758,3.407653 7.20272,7.745394 11.35126,14.988364 3.23803,5.653307 6.857,10.700817 8.12585,11.333404 1.44746,0.721639 13.18746,1.406666 31.9641,1.8651 l 29.67639,0.724553 20,6.501259 c 11,3.575692 21.71328,7.451484 23.80728,8.61287 2.89877,1.607729 3.99036,1.815389 4.57449,0.870239 0.42197,-0.682755 4.64521,-6.292606 9.38499,-12.466335 C 450.00654,67.551233 457.62428,57.55 462.19507,51.5 l 8.31054,-11 7.4972,-0.213895 7.49719,-0.213894 63,30.798238 63,30.798241 0.30934,3.64841 c 0.17013,2.00663 -0.0549,4.26486 -0.5,5.01829 -0.44514,0.75342 -8.90934,8.92392 -18.80934,18.15666 -9.9,9.23274 -18,17.26516 -18,17.84982 0,0.58466 4.5,3.68722 10,6.89458 5.5,3.20735 15.4,8.56803 22,11.9126 6.6,3.34458 14.99785,8.5229 18.6619,11.50738 3.66404,2.98448 7.22159,6.10073 7.90567,6.92499 0.68408,0.82426 1.601,3.75845 2.03761,6.52043 0.66448,4.20347 1.72299,6.02536 6.4959,11.18067 4.87292,5.26334 7.65318,10.13509 19.1201,33.50351 l 13.41803,27.34461 2.41982,21.68468 c 1.3309,11.92657 2.64641,22.6504 2.92336,23.83073 0.27694,1.18033 5.41869,6.66162 11.42611,12.18064 6.00741,5.51903 12.22297,10.70706 13.81235,11.52896 1.58938,0.8219 3.41023,2.63663 4.04635,4.03275 0.63611,1.39611 2.86122,3.63301 4.94468,4.97088 2.08347,1.33787 5.48371,4.00994 7.5561,5.93794 2.16629,2.01536 5.06634,6.41669 6.82237,10.35412 1.67991,3.76676 4.75775,10.44866 6.83964,14.84866 2.0819,4.4 4.8013,10.25 6.04311,13 1.24181,2.75 5.38335,14 9.20342,25 l 6.94559,20 -0.44675,20.5 c -0.24571,11.275 -0.90322,22.525 -1.46114,25 -0.55791,2.475 -2.39946,10.90057 -4.09233,18.72349 -1.79967,8.31646 -4.33369,16.83014 -6.10165,20.5 -1.66305,3.45208 -4.72072,9.42651 -6.79484,13.27651 -2.07412,3.85 -4.99834,8.79196 -6.49826,10.98213 -1.49993,2.19018 -2.72714,4.70854 -2.72714,5.59637 0,0.88782 -0.65412,2.92086 -1.45359,4.51786 -0.79948,1.597 -3.77125,5.15364 -6.60395,7.90364 -2.83269,2.75 -9.68614,10.12641 -15.22989,16.39203 -7.57288,8.55898 -12.08558,12.67834 -18.14605,16.56443 -4.43659,2.84482 -12.5587,7.16841 -18.04914,9.60797 -5.49043,2.43956 -16.06543,7.52166 -23.5,11.29355 -7.43456,3.77188 -13.84799,7.37188 -14.25207,8 -0.40408,0.62811 -0.74158,5.79759 -0.75,11.48773 -0.0117,7.9298 -0.42133,11.08229 -1.75404,13.5 -0.9563,1.73486 -3.13787,4.95429 -4.84794,7.15429 -1.71006,2.2 -5.20263,7.06594 -7.76127,10.81321 -3.44017,5.03833 -4.65206,7.76324 -4.65206,10.46008 0,3.43198 -1.49674,5.1469 -25.40087,29.10362 l -25.40088,25.45675 -6.59595,0.79407 c -5.92893,0.71378 -7.20475,1.30072 -12.61605,5.80405 -5.18057,4.31132 -7.6563,5.5108 -17.75317,8.60135 -6.45319,1.97525 -13.08308,4.05751 -14.73308,4.62723 -1.65,0.56973 -14.475,1.64392 -28.5,2.38711 -14.025,0.74319 -27.75,1.34005 -30.5,1.32637 z m 31.35168,-50.02571 c 4.50107,0.12773 8.71306,-1.13919 26.5,-7.97093 11.63158,-4.46754 23.76088,-9.69035 26.95401,-11.60624 3.19314,-1.91589 10.39314,-7.51918 16,-12.45175 5.60687,-4.93258 10.98181,-10.39025 11.94431,-12.12817 0.9625,-1.73791 1.75,-4.47438 1.75,-6.08105 0,-1.6224 1.20263,-4.51933 2.70489,-6.5156 1.48769,-1.97691 3.47245,-4.15422 4.41057,-4.83846 0.93813,-0.68424 3.13318,-3.56403 4.87788,-6.39953 2.58997,-4.20924 3.51495,-7.37636 5.03969,-17.25593 1.02712,-6.65526 2.78236,-17.68048 3.90052,-24.5005 1.11817,-6.82001 2.72439,-13.45517 3.56938,-14.74478 0.84499,-1.28962 3.15746,-3.02211 5.13883,-3.84997 1.98137,-0.82787 5.39708,-1.50522 7.59046,-1.50522 2.47033,0 10.7009,-2.51665 21.62788,-6.61314 9.70194,-3.63722 19.88271,-7.72155 22.62393,-9.07628 2.74122,-1.35473 7.24122,-4.5951 10,-7.20083 2.75878,-2.60572 7.50993,-6.33097 10.55811,-8.27833 3.04818,-1.94736 8.44818,-6.43993 12,-9.98351 3.55182,-3.54357 8.82036,-10.39374 11.70786,-15.22261 3.44743,-5.76524 5.23977,-9.86911 5.22021,-11.95252 -0.0164,-1.74503 2.32659,-11.37232 5.2066,-21.39398 l 5.23638,-18.22119 -2.5645,-21.27881 -2.56449,-21.2788 -6.22659,-14 c -3.42462,-7.7 -6.94391,-15.52375 -7.82063,-17.38611 -0.87672,-1.86235 -7.32444,-9.52288 -14.32826,-17.02338 l -12.73423,-13.63728 -15.09613,-6.8844 c -8.30287,-3.78642 -15.37111,-6.60941 -15.70721,-6.27331 -0.3361,0.33609 -1.5696,1.94622 -2.74112,3.57805 -1.17152,1.63184 -25.75503,22.47531 -54.63003,46.31883 -28.875,23.84352 -101.80366,84.14649 -162.06369,134.00661 -67.27033,55.66055 -111.79106,93.19178 -115.33386,97.22708 -3.99919,4.55514 -5.35181,6.73286 -4.40707,7.09539 0.74971,0.28769 12.14995,0.11327 25.33386,-0.38761 23.38518,-0.88843 24.16593,-0.9864 31.95986,-4.01045 l 7.9891,-3.09977 2.1482,2.23818 c 1.18151,1.23099 3.26065,4.26317 4.62031,6.73817 1.35966,2.475 3.54787,6.23042 4.8627,8.34539 1.31482,2.11496 8.46559,10.3409 15.89059,18.27987 7.425,7.93897 15.12747,15.56565 17.11661,16.94818 1.98914,1.38252 4.65228,3.6161 5.91809,4.9635 1.64573,1.7518 7.88087,4.28203 21.88339,8.88031 18.91044,6.20999 20.07912,6.46218 34.08191,7.35475 7.975,0.50835 16.90826,0.99261 19.85168,1.07613 z M 256.68525,619 c 0.68212,0 3.1481,-2.8125 5.47994,-6.25 2.33184,-3.4375 36.45223,-46.75 75.8231,-96.25 C 377.35916,467 412.59306,421.87195 416.28584,416.21545 419.97863,410.55894 423,405.35882 423,404.65962 c 0,-0.6992 -0.95898,-4.17115 -2.13107,-7.71545 -1.17209,-3.54429 -2.49513,-6.84471 -2.9401,-7.33426 -0.44496,-0.48956 -4.32348,-2.42154 -8.61892,-4.29331 -6.0466,-2.63484 -13.22861,-4.39866 -31.80991,-7.81213 -13.2,-2.4249 -51.225,-9.38575 -84.5,-15.46856 -33.275,-6.0828 -61.7375,-11.31506 -63.25,-11.62723 -2.4838,-0.51265 -2.75,-0.98234 -2.75,-4.85223 0,-4.15415 1.12539,-5.65999 36.95141,-49.4432 20.32328,-24.83721 41.13578,-49.66112 46.25,-55.16425 5.11423,-5.50312 9.41807,-10.35137 9.5641,-10.77387 0.14603,-0.42251 -6.3234,-3.67225 -14.37652,-7.22166 -11.2413,-4.9546 -15.48362,-7.35951 -18.26551,-10.35447 -1.99291,-2.14555 -4.41098,-4.73305 -5.37348,-5.75 -1.12354,-1.1871 -3.15444,-1.849 -5.67327,-1.849 -2.76858,0 -4.9024,0.79216 -7.25,2.69148 -1.8297,1.48032 -9.85173,9.02871 -17.82673,16.7742 l -14.5,14.08272 -32,13.40176 -32,13.40176 -18.17261,15.9495 -18.17262,15.9495 -3.21882,8.9267 c -2.2597,6.26681 -4.21444,9.86579 -6.56015,12.07833 -1.83772,1.73339 -3.98461,4.52242 -4.77085,6.19783 -0.78624,1.67542 -1.90524,8.89622 -2.48667,16.04622 -0.58143,7.15 -1.34831,20.0425 -1.70417,28.65 l -0.64703,15.65001 6.71206,20.13741 6.71206,20.13741 10.04333,10.71259 c 5.52382,5.89192 10.89298,12.12039 11.93146,13.84104 1.03848,1.72066 4.91346,5.78996 8.61108,9.04289 3.82462,3.36467 10.1718,7.57855 14.72293,9.77454 4.4,2.12306 10.82084,5.12618 14.26852,6.6736 3.44769,1.54742 6.48843,3.39107 6.7572,4.097 0.26876,0.70593 0.85388,16.58351 1.30025,35.28351 l 0.81159,34 8.12928,17.11898 c 4.47111,9.41543 8.43672,18.41543 8.81246,20 0.37575,1.58456 1.63662,3.9411 2.80194,5.23676 1.16532,1.29565 8.86876,7.39901 17.11876,13.563 8.25,6.164 16.11263,11.96642 17.47251,12.89426 1.35987,0.92785 3.03061,1.687 3.71274,1.687 z M 620.9108,328.43687 c 0.48651,-0.51528 2.33236,-4.44782 4.10189,-8.73898 3.12519,-7.57866 3.19668,-8.07986 2.49616,-17.5 -0.39665,-5.33384 -1.16174,-10.52744 -1.70021,-11.54135 -0.53847,-1.0139 -1.5897,-6.19488 -2.33605,-11.5133 -1.06103,-7.56072 -2.45163,-12.14604 -6.37552,-21.02251 -2.76018,-6.24396 -5.55172,-12.98797 -6.20343,-14.98669 -0.72283,-2.21685 -4.70093,-7.3388 -10.20089,-13.13404 -4.95878,-5.225 -13.78074,-13.45037 -19.60436,-18.27861 -7.44072,-6.16893 -14.50232,-10.85103 -23.75438,-15.75 C 544.82492,189.34783 543.83393,189 537.47216,189 h -6.69585 l -5.13815,5.73199 c -2.82599,3.1526 -19.75737,20.7611 -37.62529,39.13001 l -32.48713,33.39801 -0.30357,7.12 c -0.16695,3.91599 0.0523,7.62498 0.48714,8.24219 0.43488,0.61721 4.73669,3.6886 9.55958,6.82532 l 8.76889,5.70313 69.73111,13.41738 c 38.35211,7.37955 70.69864,13.64294 71.88118,13.91864 1.2856,0.29973 2.5976,1.78504 3.26313,3.69418 0.66786,1.91583 1.46685,2.81818 1.9976,2.25602 z M 365.06291,171.96488 c 0.8596,0.0193 2.69971,-1.20238 4.08914,-2.71488 1.38943,-1.5125 8.33612,-10.34067 15.43709,-19.61815 7.10097,-9.27748 13.35323,-17.48154 13.89391,-18.23124 0.68083,-0.94403 0.52711,-1.8085 -0.5,-2.81192 -0.81568,-0.79685 -8.23774,-3.21829 -16.49347,-5.38097 l -15.01041,-3.93213 -20.98959,0.93275 c -18.71067,0.83149 -21.42387,1.17151 -24.98958,3.13172 -2.2,1.20943 -4,2.77886 -4,3.48762 0,0.70877 10.575,11.14668 23.5,23.19537 12.925,12.04869 24.20331,21.92251 25.06291,21.94183 z M 188.30093,150 c 4.30681,0 8.81347,-0.51129 10.01481,-1.13619 1.20134,-0.62491 4.50655,-3.10035 7.3449,-5.50098 5.00035,-4.22922 5.22606,-4.64893 7.26703,-13.51333 1.99846,-8.67973 2.01909,-9.28181 0.40261,-11.74903 -0.93708,-1.43026 -4.37619,-5.97547 -7.64247,-10.10047 -3.26628,-4.125 -6.59478,-7.88087 -7.39668,-8.346384 -0.8019,-0.465511 -5.35796,-0.660117 -10.12457,-0.432458 -5.77627,0.275882 -10.56665,1.159172 -14.364,2.648562 l -5.69744,2.23465 -3.17004,8.19781 c -1.74353,4.5088 -3.1604,9.09782 -3.1486,10.19782 0.0118,1.1 1.47075,5.825 3.24211,10.5 1.77136,4.675 4.17708,9.47128 5.34603,10.6584 1.16896,1.18711 3.91872,3.09961 6.11057,4.25 3.05763,1.60478 5.80776,2.0916 11.81574,2.0916 z"
       id="path4767"
       inkscape:connector-curvature="0" />
    <path
       style="fill:#696969"
       d="m 450.5,749.83336 c -1.65,-0.0359 -3.9,-0.27851 -5,-0.53903 -1.1,-0.26051 -8.99785,-2.1722 -17.55078,-4.24818 -11.18638,-2.71518 -19.18502,-5.40277 -28.5,-9.57616 -7.70583,-3.45245 -15.17628,-7.61036 -18.44922,-10.26849 -3.025,-2.45676 -6.4,-4.8408 -7.5,-5.29787 -1.1,-0.45707 -6.05,-1.55374 -11,-2.43704 -7.24546,-1.29292 -11.24192,-2.77412 -20.5,-7.59792 -10.54112,-5.49231 -13.58453,-6.5127 -36.5,-12.23771 l -25,-6.24578 -5.33183,-6.63694 -5.33183,-6.63693 -14.10961,-4.70238 -14.10961,-4.70238 -4.05856,2.15542 c -2.23221,1.18548 -11.48356,8.22099 -20.55856,15.63448 -9.075,7.41348 -17.175,13.36748 -18,13.23109 -0.825,-0.13638 -1.62789,-1.14337 -1.78419,-2.23776 -0.17825,-1.24802 4.04177,-7.93458 11.32022,-17.93674 6.38243,-8.77083 12.08416,-16.84336 12.67051,-17.93897 0.94895,-1.77312 -1.68536,-4.7069 -23.97335,-26.6987 l -25.03944,-24.7067 -9.23147,-20.85433 C 157.88497,577.88445 152.59274,566.475 151.20177,564 c -1.39097,-2.475 -3.56068,-5.62904 -4.82157,-7.00897 -1.2609,-1.37994 -11.11341,-20.47378 -21.89447,-42.43077 -18.134,-36.93219 -20.30899,-40.8539 -29.043823,-52.36867 C 86.99539,451.0569 86,449.30215 86,445.54667 86,442.36173 85.396685,440.78184 83.5,439 82.125,437.70825 81,436.08283 81,435.38795 c 0,-0.69488 -1.79367,-4.55394 -3.985934,-8.57569 -2.682967,-4.92194 -3.990533,-8.57817 -4,-11.18484 -0.0077,-2.12992 -2.08984,-11.80492 -4.626897,-21.5 C 64.526064,379.37264 63.876497,375.6037 64.401218,371 c 0.344784,-3.025 1.51229,-14.05 2.594458,-24.5 1.082168,-10.45 2.486984,-21.86647 3.121814,-25.36994 0.829573,-4.57821 1.993516,-7.32583 4.138035,-9.76831 2.174779,-2.47693 3.339192,-5.26352 4.294538,-10.27737 1.033889,-5.42605 2.23941,-8.11519 5.70754,-12.73169 2.418242,-3.21898 8.999923,-12.47292 14.625959,-20.5643 9.863318,-14.18547 10.218198,-14.8814 9.922798,-19.4591 l -0.30636,-4.74748 -6.81527,-2.58584 c -4.977255,-1.88845 -8.540121,-4.19186 -13.210898,-8.5409 C 84.956241,229.17978 75.760614,220.37167 68.039106,212.88149 56.066801,201.26786 54,198.81651 54,196.23027 c 0,-2.40057 -0.722814,-3.45919 -3.4677,-5.07871 -2.127231,-1.2551 -3.730121,-3.12944 -4.146562,-4.84878 -0.373374,-1.54153 -3.321974,-8.10144 -6.552444,-14.57759 -3.230471,-6.47614 -6.598359,-14.80114 -7.484196,-18.5 -1.26275,-5.27267 -1.591303,-11.8431 -1.521209,-30.42125 0.06772,-17.95054 0.470252,-25.22457 1.660124,-30.000004 0.863896,-3.467165 3.856788,-12.422031 6.650869,-19.899702 L 44.219031,59.308469 55.137155,47.712952 C 64.833563,37.414949 66.4713,36.08289 69.773146,35.808718 73.031836,35.538128 73.553862,35.129483 73.999881,32.5 74.438859,29.912029 74.988848,29.459644 78.004374,29.206169 79.926968,29.044563 88.025,27.82528 96,26.496652 c 7.975,-1.328627 21.475,-3.132582 30,-4.008788 8.525,-0.876206 25.85,-2.890032 38.5,-4.475168 12.65,-1.585137 36.59059,-4.35895 53.20131,-6.164029 26.34502,-2.8629001 30.94173,-3.1295592 36,-2.0883912 3.18928,0.6564642 11.51108,3.7402352 18.49289,6.8528242 11.56955,5.157871 13.4089,6.35595 20.76133,13.523077 C 297.39245,34.461279 301.45572,38 301.98502,38 c 0.52929,0 2.95598,1.993634 5.39265,4.430297 2.43666,2.436664 6.9984,8.965944 10.13719,14.509512 3.1388,5.543568 6.21951,10.412434 6.84602,10.819703 C 324.9874,68.16678 339.675,68.985699 357,69.579331 l 31.5,1.079332 20.5,6.773973 c 11.92288,3.939769 21.47847,7.672143 22.83862,8.920669 l 2.33861,2.146695 2.47651,-3 c 1.36208,-1.65 9.71041,-12.5625 18.55184,-24.25 L 471.2809,40 h 6.34735 c 6.29038,0 6.91059,0.274538 69.10955,30.591385 34.51921,16.825262 63.3247,31.055365 64.0122,31.622445 0.6875,0.56708 1.24694,2.43846 1.2432,4.15861 -0.006,2.77139 -2.19821,5.16756 -19.25,21.04109 -10.58376,9.85244 -19.2432,18.38104 -19.2432,18.95244 0,0.57141 4.5,3.65722 10,6.85737 5.5,3.20014 16.075,8.9495 23.5,12.77635 10.02249,5.16559 15.36755,8.65906 20.75,13.56194 6.92093,6.3043 7.25,6.80568 7.25,11.04643 0,4.05162 0.53353,5.01589 6.06537,10.96221 5.33564,5.73541 7.68206,9.81447 19.50302,33.90439 l 13.43765,27.38457 2.55275,23.32039 2.55276,23.32038 9.19422,8.744 c 5.05683,4.80919 11.52798,10.32667 14.38035,12.26105 2.85237,1.93438 5.474,4.42407 5.82584,5.53265 0.35185,1.10857 1.8431,2.76605 3.31388,3.68328 1.47079,0.91724 4.96837,3.58171 7.77241,5.92104 4.35408,3.6325 5.79754,5.8301 9.88904,15.05566 2.63493,5.94128 5.85322,12.64186 7.15175,14.89018 1.29853,2.24832 2.36096,4.8101 2.36096,5.69284 0,0.88274 0.87741,3.0932 1.9498,4.91214 1.07239,1.81894 5.12239,12.46537 9,23.65873 L 757,430.20314 v 16.82214 c 0,9.25218 -0.48412,19.21897 -1.07581,22.14843 -0.5917,2.92946 -1.70359,8.02629 -2.47088,11.32629 -0.76728,3.3 -2.36177,10.725 -3.54331,16.5 -1.18153,5.775 -3.59238,13.65 -5.35744,17.5 -1.76507,3.85 -3.96146,7.6176 -4.88088,8.37244 -0.91943,0.75485 -1.67168,2.05007 -1.67168,2.87828 0,0.8282 -1.35286,3.87038 -3.00635,6.76038 -1.65349,2.89 -3.67849,5.81238 -4.5,6.49417 -0.82151,0.68179 -1.49365,2.26699 -1.49365,3.52267 0,1.25568 -0.9758,4.11118 -2.16844,6.34556 -1.19264,2.23437 -3.89533,5.45026 -6.00597,7.14642 -2.11065,1.69616 -8.63244,8.57306 -14.49287,15.282 -6.88017,7.87633 -12.96647,13.75515 -17.17849,16.59289 -3.58773,2.41714 -10.60264,6.41938 -15.58869,8.89386 -4.98605,2.47448 -11.09054,5.22825 -13.56554,6.11949 -2.475,0.89124 -9.76474,4.43265 -16.19943,7.8698 -6.43468,3.43715 -11.9467,6.64947 -12.24894,7.13849 -0.30223,0.48902 -0.60235,5.87123 -0.66693,11.96047 -0.0858,8.09214 -0.48975,11.38034 -1.50106,12.21965 -0.761,0.63158 -1.38364,1.57327 -1.38364,2.09265 0,0.51939 -3.59304,5.75179 -7.98454,11.62756 -6.85143,9.16713 -7.98673,11.25188 -8,14.6903 -0.0151,3.90432 -0.68859,4.6776 -26.26546,30.15567 l -26.25,26.14859 -6.10263,0.39748 c -5.66558,0.36901 -6.52499,0.76316 -12,5.50345 -5.46991,4.73587 -7.02087,5.44822 -21.39737,9.82782 l -15.5,4.72185 -25.5,1.31839 c -14.025,0.72511 -26.85,1.28898 -28.5,1.25303 z m 31,-49.98954 c 6.56531,0.13839 8.35159,-0.37872 28.76544,-8.32728 11.971,-4.66116 24.121,-9.98593 27,-11.83281 2.87901,-1.84689 7.17022,-5.11877 9.53602,-7.27085 2.3658,-2.15209 6.13256,-5.60038 8.37058,-7.66288 2.23802,-2.0625 4.42816,-3.75 4.86698,-3.75 0.43882,0 1.73456,-1.51562 2.87942,-3.36803 1.14486,-1.85242 2.08156,-4.94174 2.08156,-6.86515 0,-2.05287 0.90419,-4.68849 2.18943,-6.38196 1.20419,-1.58667 4.01669,-4.90986 6.25,-7.38486 2.23331,-2.475 4.81437,-6.075 5.73567,-8 0.92131,-1.925 3.33256,-14.3 5.35834,-27.5 3.06541,-19.97418 4.04249,-24.39207 5.8249,-26.33732 1.17791,-1.28552 3.65912,-2.97302 5.51378,-3.75 1.85467,-0.77697 5.22967,-1.41106 7.5,-1.40907 2.73376,0.002 10.88255,-2.57095 24.12788,-7.61943 11,-4.19267 20.71043,-8.2443 21.57874,-9.00361 0.86831,-0.75931 2.01448,-1.38057 2.54705,-1.38057 0.53257,0 2.74714,-1.85329 4.92126,-4.11843 2.17412,-2.26514 6.87795,-6.02352 10.45295,-8.35196 3.575,-2.32844 9.12903,-6.88764 12.3423,-10.13157 3.21326,-3.24392 6.45364,-7.07041 7.20083,-8.50331 0.7472,-1.4329 3.2425,-5.44162 5.54511,-8.90827 3.16115,-4.75921 4.24691,-7.42766 4.43292,-10.89473 0.13549,-2.52545 2.49046,-12.24173 5.23327,-21.59173 l 4.98692,-17 -2.69782,-22 -2.69782,-22 -6.95492,-15.5 c -3.82521,-8.525 -8.16688,-17.3 -9.64815,-19.5 -1.48127,-2.2 -7.54184,-9.03759 -13.46793,-15.19464 L 660.5,357.11071 645.36079,350.17787 c -8.32657,-3.81307 -15.5717,-6.65048 -16.1003,-6.30536 -0.52859,0.34512 -1.46221,1.58006 -2.0747,2.74432 -0.61249,1.16425 -12.49235,11.53072 -26.3997,23.03659 C 586.87874,381.15929 513.175,442.15684 437,505.20354 355.82938,572.3849 296.28159,622.37557 293.14062,625.97423 c -2.94766,3.37719 -5.11438,6.38534 -4.81492,6.6848 0.29945,0.29945 1.58617,0.55454 2.85938,0.56685 1.27321,0.0123 11.98992,-0.27381 23.81492,-0.63585 20.60554,-0.63087 21.91024,-0.79204 31.36088,-3.87414 l 9.86088,-3.21589 1.63912,2.38829 c 0.90152,1.31356 2.76412,4.28193 4.13912,6.59639 1.375,2.31446 3.85631,6.471 5.51403,9.23676 1.65771,2.76576 8.8862,11.04739 16.0633,18.40361 7.1771,7.35622 15.61764,15.54885 18.75677,18.20584 5.14777,4.35714 7.56295,5.45121 24.6275,11.15627 18.19972,6.08457 19.46474,6.36123 33.2292,7.26724 7.87006,0.51803 17.4592,1.00827 21.3092,1.08942 z M 257.35713,619.41645 c 0.69261,-0.26578 2.88669,-2.95441 4.87573,-5.97474 1.98905,-3.02033 36.2557,-46.5428 76.14813,-96.71661 39.89242,-50.1738 75.47281,-95.75592 79.06753,-101.29359 l 6.53585,-10.0685 -2.77291,-8.2523 -2.7729,-8.25229 -7.96928,-3.52458 c -5.92609,-2.62094 -12.71236,-4.40636 -26.46928,-6.9639 -10.175,-1.89163 -49.32113,-9.08929 -86.9914,-15.99481 -37.67027,-6.90552 -68.83277,-12.76646 -69.25,-13.02432 -0.41723,-0.25787 -0.7586,-2.01239 -0.7586,-3.89894 0,-3.02859 4.23773,-8.61095 36.20361,-47.69098 19.91199,-24.34349 40.72449,-49.11917 46.25,-55.05707 5.52552,-5.9379 10.04639,-11.49777 10.04639,-12.35527 0,-1.0435 -4.79507,-3.69476 -14.5,-8.01725 -12.99412,-5.78746 -15.00191,-7.02278 -19.33284,-11.89474 C 280.95638,205.1373 280.69954,205 275.49745,205 h -5.33688 l -17.33028,16.75716 -17.33029,16.75716 -31.99996,13.42915 -31.99997,13.42914 -17.50003,15.39561 -17.50004,15.3956 -3.71971,9.66809 c -2.45032,6.36876 -4.70263,10.52124 -6.59999,12.16809 -1.58416,1.375 -3.60124,3.62563 -4.48242,5.00141 -1.13795,1.77667 -1.91502,6.9918 -2.68207,18 -0.59396,8.52422 -1.4617,21.57359 -1.9283,28.99859 l -0.84836,13.5 6.94085,21.1818 6.94085,21.18181 11.43529,12.31819 c 6.28941,6.77501 11.43722,12.80079 11.43958,13.39062 0.002,0.58983 2.99097,3.71089 6.64138,6.93569 3.7691,3.32966 10.14282,7.56773 14.75,9.80771 4.46209,2.16944 11.3085,5.40479 15.21422,7.18966 l 7.10133,3.24523 0.58167,20.87464 c 0.31993,11.48106 0.64605,27.0727 0.72472,34.64808 l 0.14304,13.77344 8.30511,17.72656 c 4.56782,9.74962 8.61613,19.17441 8.99626,20.94398 0.45733,2.12896 2.27362,4.5289 5.36885,7.09409 2.57273,2.13217 8.21664,6.53434 12.54201,9.78259 4.32537,3.24825 11.20988,8.24584 15.29892,11.10575 4.08903,2.85992 8.00129,4.98239 8.6939,4.71661 z m 364.2472,-290.89001 c 0.76762,-1.04979 1.39567,-2.30056 1.39567,-2.7795 0,-0.47893 1.1873,-3.38053 2.63844,-6.44799 2.53032,-5.34867 2.6108,-6.03939 1.9641,-16.85639 -0.37088,-6.20355 -1.28454,-12.55345 -2.03035,-14.11087 -0.74582,-1.55743 -1.6626,-6.20669 -2.03729,-10.33169 -0.54836,-6.03703 -1.83736,-10.17569 -6.60808,-21.21704 C 613.66707,249.23858 611,242.33549 611,241.44274 c 0,-0.89274 -4.1625,-5.95764 -9.25,-11.25533 -5.0875,-5.29769 -14.49734,-13.9196 -20.91075,-19.15979 -7.8898,-6.4465 -15.4876,-11.5488 -23.49438,-15.77762 -11.68655,-6.17232 -11.9339,-6.25 -19.90119,-6.25 -7.86863,0 -8.12429,0.0767 -10.36797,3.11147 -1.26523,1.71131 -18.01813,19.25634 -37.22868,38.98895 l -34.92827,35.87749 0.29062,8.26104 0.29062,8.26105 8.91071,5.95111 8.91072,5.9511 68.58928,13.23288 c 37.72411,7.27808 70.08595,13.51438 71.9152,13.85844 2.62713,0.49414 3.64703,1.39413 4.85433,4.28359 1.44432,3.45677 1.6052,3.55301 2.92409,1.74932 z M 365.48355,172.72082 c 1.2686,-0.14123 6.85541,-6.59737 15.5,-17.91187 7.43405,-9.73007 14.52895,-18.75908 15.76645,-20.06445 1.2375,-1.30537 2.25,-3.33034 2.25,-4.49993 0,-1.1696 -0.48153,-2.42414 -1.07007,-2.78787 -0.58853,-0.36374 -7.63995,-2.39778 -15.66981,-4.5201 l -14.59975,-3.85876 -22.48503,1.04628 c -21.25973,0.98927 -22.69812,1.18081 -26.39557,3.51491 -2.15081,1.35774 -3.76531,2.90436 -3.58778,3.43694 0.17753,0.53258 11.11945,11.07023 24.31539,23.417 16.51579,15.45297 24.61076,22.37985 25.97617,22.22785 z M 188.34677,150 h 9.86964 l 6.3382,-5.04346 c 3.48601,-2.7739 6.56633,-5.8114 6.84517,-6.75 0.27883,-0.9386 1.20294,-4.77196 2.05359,-8.51859 0.85065,-3.74663 1.54663,-7.66101 1.54663,-8.69861 0,-1.0376 -3.60343,-6.40968 -8.00761,-11.93795 L 198.98477,99 h -9.27864 c -7.24992,0 -10.58256,0.49872 -15.24238,2.28098 -5.14352,1.96727 -6.24526,2.86282 -8.01054,6.51141 -1.12574,2.32673 -2.86743,6.64471 -3.87044,9.5955 l -1.82365,5.36508 3.97456,10.37352 c 3.72141,9.71279 4.28567,10.58051 8.85901,13.62351 4.68486,3.11721 5.2877,3.25 14.75408,3.25 z"
       id="path4765"
       inkscape:connector-curvature="0" />
    <path
       style="fill:#505050"
       d="m 459,749.40319 c -8.72472,0.45054 -10.993,0.12982 -27.79478,-3.93004 -13.88255,-3.35448 -21.35895,-5.78971 -31,-10.09737 -7.85408,-3.50924 -15.13789,-7.59811 -19.07643,-10.70882 -5.92342,-4.6784 -7.13914,-5.19062 -17.29723,-7.28791 -8.89888,-1.83731 -12.91172,-3.31102 -21.62878,-7.94313 -9.69625,-5.15243 -13.05388,-6.28255 -35.70278,-12.01688 l -25,-6.32959 -3.88003,-4.29472 c -2.13402,-2.3621 -4.883,-5.41973 -6.10884,-6.79473 -1.54736,-1.73564 -6.18248,-3.79941 -15.16021,-6.75 -7.11228,-2.3375 -13.88059,-4.25 -15.04068,-4.25 -1.16009,0 -4.29198,1.47574 -6.95975,3.27943 -2.66777,1.80369 -11.32732,8.5743 -19.24345,15.04579 -7.91612,6.4715 -15.07883,11.63326 -15.91713,11.47057 -0.8383,-0.16268 -1.68773,-0.78707 -1.88762,-1.38751 -0.19989,-0.60045 5.27532,-8.86521 12.16714,-18.36613 6.89181,-9.50092 12.53866,-18.00965 12.54855,-18.90828 0.01,-0.89863 -11.18331,-12.69374 -24.87378,-26.21135 l -24.89177,-24.57748 -9.72396,-21.92252 C 157.18028,575.36513 151.05429,563.025 148.91516,560 146.77602,556.975 136.05446,536.43305 125.08948,514.35121 106.90626,477.73293 104.3479,473.14782 95.995947,462.20954 88.563203,452.47513 86.73501,449.39592 86.287882,445.85833 85.984905,443.46125 85.185125,440.825 84.510593,440 83.836061,439.175 80.970232,433.81621 78.142085,428.09158 74.627626,420.97774 73,416.45643 73,413.80762 c 0,-2.13154 -2.035744,-11.68864 -4.523876,-21.23799 l -4.523876,-17.36246 1.487324,-11.85358 C 66.2576,356.83411 67.422202,346.1 68.027577,339.5 c 0.605376,-6.6 1.746323,-14.83826 2.53544,-18.30725 0.848058,-3.7281 2.611713,-7.81729 4.312974,-10 1.902233,-2.44056 3.291105,-5.88862 4.095839,-10.16845 0.783837,-4.16869 2.196448,-7.73125 3.965157,-10 1.511145,-1.93836 7.993519,-11.01881 14.405275,-20.17876 C 108.42386,255.01416 109,253.94529 109,249.21798 c 0,-2.80501 -0.54495,-5.38736 -1.25,-5.92334 -0.6875,-0.52264 -3.5,-1.76749 -6.25,-2.76633 -2.75,-0.99885 -7.25,-3.73355 -10,-6.07712 C 88.75,232.10762 79.1875,222.99484 70.25,214.20056 57.892879,202.04146 54,197.61523 54,195.72417 c 0,-1.66689 -1.153958,-3.36696 -3.5,-5.15637 -1.925,-1.46827 -3.5,-3.26455 -3.5,-3.99174 0,-0.72719 -2.867802,-7.13639 -6.372894,-14.24268 -3.760774,-7.62466 -7.064396,-15.96081 -8.059978,-20.33806 -1.305984,-5.74197 -1.683996,-12.31736 -1.673413,-29.10845 0.01178,-18.68796 0.304387,-22.84663 2.113572,-30.038891 1.154946,-4.591389 4.185726,-13.878169 6.735066,-20.637291 L 44.377519,59.921376 55.938759,47.940073 C 66.086844,37.423272 67.897255,35.96129 70.75,35.979385 73.480613,35.996705 74,35.632434 74,33.7 c 0,-1.265 0.54,-2.84 1.2,-3.5 0.66,-0.66 2.785298,-1.2 4.722884,-1.2 1.937586,0 10.060086,-1.106783 18.05,-2.459517 C 105.9628,25.187749 119.475,23.369762 128,22.500512 c 8.525,-0.869249 24.05,-2.674296 34.5,-4.011214 10.45,-1.336919 33.85,-4.075755 52,-6.086302 32.04819,-3.5501041 33.19193,-3.6096802 39.65437,-2.065552 3.65991,0.874494 11.91693,3.949996 18.34895,6.83445 10.34532,4.639388 12.62675,6.143432 19.77427,13.036283 4.44384,4.285503 8.56182,7.803379 9.15106,7.817504 0.58924,0.01412 3.12838,2.151625 5.64253,4.75 2.51415,2.598375 6.88901,8.805637 9.72191,13.793914 2.83291,4.988278 5.95088,9.778083 6.92882,10.644013 1.487,1.316671 6.44378,1.687154 30.27809,2.263062 19.81732,0.478845 30.32793,1.142517 34.5,2.178434 3.3,0.819385 13.65,3.992623 23,7.051641 9.35,3.059019 18.07319,6.401417 19.38486,7.427553 C 432.19653,87.160434 433.79599,88 434.43922,88 c 0.64323,0 9.14515,-10.569592 18.89316,-23.487981 12.75227,-16.899723 18.43374,-23.666198 20.25515,-24.123345 1.39232,-0.34945 4.41721,-0.417989 6.72198,-0.15231 2.79172,0.321812 25.3152,10.784368 67.47687,31.344201 50.71513,24.730867 63.39536,31.295375 63.83503,33.047155 0.30176,1.2023 0.0828,3.01541 -0.48664,4.02914 -0.56941,1.01373 -9.34684,9.49314 -19.5054,18.84314 -10.15856,9.35 -18.50594,17.72561 -18.54974,18.61246 -0.0518,1.04949 4.19726,4.05966 12.17037,8.6218 6.7375,3.85514 17.29844,9.57334 23.46875,12.70711 8.67181,4.40422 12.92907,7.3279 18.7523,12.87819 7.01586,6.68702 7.53339,7.46556 7.53125,11.32961 -0.002,3.68149 0.69085,4.91403 6.14728,10.93498 5.35513,5.90918 7.86616,10.297 19.43723,33.96499 l 13.28765,27.17917 2.5396,22.49367 c 1.39678,12.37152 2.80399,23.18268 3.12714,24.02479 0.32315,0.84212 4.94608,5.45696 10.27317,10.2552 5.3271,4.79824 11.29785,9.6524 13.26835,10.78702 1.9705,1.13463 4.2951,3.3042 5.16578,4.82127 0.87068,1.51707 3.30845,3.86524 5.41728,5.21814 2.10882,1.3529 5.51231,4.20432 7.56332,6.33647 2.27823,2.36838 5.65772,8.14828 8.68618,14.85589 2.72639,6.03858 5.8858,12.76189 7.0209,14.94068 1.1351,2.17879 2.06382,4.51557 2.06382,5.19284 0,0.67727 0.89982,2.75648 1.9996,4.62048 1.09979,1.86399 5.14979,12.57186 9,23.79527 L 757,431.47622 v 15.1856 c 0,8.35208 -0.45466,17.35743 -1.01035,20.01189 -0.55569,2.65446 -2.81977,13.15129 -5.03128,23.32629 -2.70341,12.43823 -5.01172,20.46598 -7.04476,24.5 -1.66311,3.3 -4.5546,8.87277 -6.42554,12.38393 -1.87093,3.51117 -4.47655,8.01117 -5.79025,10 -1.31371,1.98884 -3.00378,5.64107 -3.75573,8.11607 -1.01046,3.32592 -3.1251,6.19589 -8.10498,11 -3.7058,3.575 -10.71006,11.1176 -15.56503,16.76134 -5.75141,6.6858 -11.23092,11.87384 -15.72553,14.88904 -3.79406,2.54525 -11.20665,6.75002 -16.47242,9.34396 -5.26577,2.59393 -11.2227,5.2534 -13.23761,5.90995 -2.01492,0.65654 -9.10242,4.12652 -15.75,7.71108 L 631,617.13274 l -0.1981,7.18363 c -0.10896,3.951 -0.24929,8.98363 -0.31185,11.18363 -0.0626,2.2 -0.71072,5.125 -1.44037,6.5 -0.72964,1.375 -4.86431,7.31424 -9.18815,13.1983 C 613.31858,664.10222 612,666.53079 612,669.67766 c 0,3.61391 -1.1834,4.96445 -26.77064,30.5517 L 558.45872,727 l -4.97936,0.005 c -3.04373,0.003 -6.01534,0.6835 -7.64438,1.75 -1.46577,0.95961 -4.61577,3.38435 -7,5.38832 -3.5349,2.97111 -7.19571,4.50539 -19.83498,8.313 -14.79528,4.45711 -16.29566,4.71003 -33,5.56273 -9.625,0.49132 -21.775,1.11407 -27,1.38388 z m 22,-49.55369 c 8.4258,0.14064 8.69121,0.0674 30.40394,-8.38686 12.04717,-4.6908 23.88986,-9.86901 26.31709,-11.50713 2.42723,-1.63812 9.34184,-7.3178 15.3658,-12.6215 6.02395,-5.3037 11.14283,-10.58605 11.37529,-11.73855 0.23246,-1.15251 0.68357,-3.72752 1.00247,-5.72226 0.40076,-2.50684 2.36434,-5.64829 6.35866,-10.17299 3.17837,-3.6004 6.52653,-8.04333 7.44036,-9.87319 0.91383,-1.82986 3.29982,-13.90202 5.30222,-26.82702 2.18985,-14.135 4.31698,-24.69158 5.33771,-26.49009 1.08444,-1.91078 3.30318,-3.60573 6.14673,-4.69562 2.44735,-0.93804 6.25639,-1.73 8.46452,-1.75991 2.45262,-0.0332 11.18744,-2.79374 22.44848,-7.09454 10.13852,-3.87209 20.70686,-8.34145 23.4852,-9.93191 2.77834,-1.59045 6.40153,-4.32268 8.05153,-6.07162 1.65,-1.74894 5.94964,-5.13737 9.55475,-7.52984 3.60512,-2.39247 9.23012,-7.23603 12.5,-10.76346 3.26989,-3.52743 8.13951,-9.95057 10.82139,-14.27364 3.78705,-6.10458 5.0456,-9.20349 5.63489,-13.87475 0.41731,-3.30804 2.84503,-13.06798 5.39492,-21.68876 l 4.63616,-15.67414 -2.6442,-22.25765 -2.6442,-22.25764 -7.19434,-16.10267 c -3.95689,-8.85647 -8.32513,-17.76679 -9.70721,-19.8007 -1.38208,-2.03392 -7.42671,-8.76841 -13.43252,-14.96554 L 660.5,356.5 l -15.28586,-6.90041 -15.28586,-6.90041 -4.71414,5.10966 C 622.62136,350.61916 596.875,372.4093 568,396.23138 539.125,420.05346 466.1125,480.40826 405.75,530.35316 345.3875,580.29806 296,621.50402 296,621.92196 c 0,0.41794 -2.05429,2.93469 -4.5651,5.59278 -3.59474,3.80561 -4.25728,5.00516 -3.11695,5.64332 0.79647,0.44573 7.01327,0.37772 13.81509,-0.15113 6.80183,-0.52885 17.79333,-0.97176 24.42556,-0.98424 10.91374,-0.0205 12.85093,-0.31186 20.40422,-3.06847 5.79714,-2.11569 8.66436,-2.72704 9.38941,-2.00199 0.57408,0.57408 4.21718,6.17817 8.09578,12.45353 5.36517,8.68057 9.82556,14.24237 18.64734,23.25199 6.37744,6.51324 14.55135,14.31725 18.16425,17.34225 6.17129,5.16709 7.709,5.87575 25.40465,11.70782 17.71467,5.83833 19.63925,6.26114 32.33575,7.10381 7.425,0.4928 17.325,0.95985 22,1.03787 z M 256.59501,619.99682 c 0.60226,0.002 1.7801,-0.78432 2.61743,-1.74682 0.83733,-0.9625 3.22857,-4.20961 5.31388,-7.21579 2.0853,-3.00619 35.32939,-45.08119 73.87575,-93.5 38.54637,-48.41882 73.67386,-93.3465 78.06109,-99.8393 l 7.9768,-11.80509 -2.96998,-8.68027 -2.96998,-8.68027 -8.5,-3.70582 c -7.39768,-3.22522 -13.55773,-4.62953 -47.5,-10.82859 -21.45,-3.91753 -60.32642,-11.0315 -86.39204,-15.80882 -35.46484,-6.50002 -47.64503,-9.08752 -48.39726,-10.28127 -0.55286,-0.87738 -0.71682,-2.67738 -0.36434,-4 0.35247,-1.32263 16.95624,-22.27252 36.89725,-46.5553 19.94101,-24.28279 40.8997,-49.16537 46.57485,-55.29463 5.67515,-6.12925 10.15659,-11.6297 9.95875,-12.22322 -0.19784,-0.59352 -6.86615,-3.96422 -14.81846,-7.49045 -12.87037,-5.707 -15.00803,-7.01317 -19.45875,-11.88985 -4.95403,-5.42815 -5.05284,-5.4784 -10.74712,-5.46493 -5.17805,0.0122 -6.16823,0.37854 -10,3.69915 -2.33908,2.02705 -10.10906,9.4522 -17.26661,16.50032 l -13.01373,12.81477 -30.48627,12.84381 C 188.21882,257.90854 173.15,264.42356 171.5,265.32228 c -1.65,0.89871 -10.37346,8.28135 -19.38548,16.40587 L 135.72905,296.5 l -3.31614,8.91284 c -2.44802,6.57961 -4.41207,10.02952 -7.50256,13.17851 -3.39361,3.45783 -4.34501,5.26879 -5.02376,9.56255 -0.46053,2.91329 -1.30461,14.98297 -1.87572,26.8215 -0.57112,11.83853 -1.29604,23.20783 -1.61093,25.26511 -0.45032,2.9421 0.86372,8.06487 6.15623,24 3.70082,11.14272 7.66869,21.60949 8.8175,23.25949 1.1488,1.65 6.10769,7.275 11.01974,12.5 4.91206,5.225 9.64552,10.6335 10.5188,12.0189 0.87329,1.38539 3.83779,4.60344 6.58779,7.15123 2.8373,2.62867 9.32539,6.78631 15,9.61218 5.5,2.73892 12.38046,5.99651 15.28991,7.23909 2.90945,1.24257 5.71143,3.04685 6.22663,4.0095 0.51519,0.96265 1.2041,16.91138 1.5309,35.44162 l 0.59419,33.69134 6.75201,14.18318 c 3.7136,7.80075 7.96206,17.34988 9.44102,21.22028 l 2.68903,7.0371 13.64998,10.44779 c 7.50749,5.74628 16.16466,12.13386 19.23815,14.19461 3.0735,2.06075 6.08094,3.74825 6.68319,3.75 z M 620.43261,330 c 0.78794,0 1.74166,-1.0125 2.11939,-2.25 0.37772,-1.2375 1.82393,-4.6827 3.2138,-7.65599 2.41592,-5.16828 2.49923,-5.95451 1.8948,-17.88045 -0.34773,-6.86096 -1.09823,-13.03595 -1.66778,-13.72221 -0.56954,-0.68626 -1.51293,-5.24006 -2.0964,-10.11955 -0.84219,-7.04302 -2.1672,-11.44848 -6.42792,-21.3718 -2.95187,-6.875 -5.68613,-13.82703 -6.07612,-15.44896 -0.41908,-1.74292 -4.22283,-6.59676 -9.30072,-11.86835 -4.72542,-4.90567 -13.407,-12.93564 -19.29242,-17.84439 -7.14173,-5.95658 -14.95774,-11.24917 -23.5,-15.91297 L 546.5,188.93736 537.90425,189.21868 529.3085,189.5 492.15425,227.74267 455,265.98534 v 8.97007 8.97007 l 5.75,3.85153 c 3.1625,2.11834 7.325,4.79908 9.25,5.95719 2.59755,1.56274 21.80691,5.62226 74.5,15.74412 60.31225,11.58542 71.26343,13.94739 72.75,15.69084 0.9625,1.12883 1.75,2.67756 1.75,3.44162 0,0.76407 0.64468,1.38922 1.43261,1.38922 z M 364.70535,172.98469 c 0.98706,-0.008 2.30764,-0.34592 2.93463,-0.75 0.62699,-0.40408 7.9903,-9.7178 16.36291,-20.69715 8.37262,-10.97935 15.41299,-20.45774 15.64529,-21.06309 0.23229,-0.60535 -0.38102,-1.81491 -1.36291,-2.6879 -0.9819,-0.87299 -7.98196,-3.22391 -15.5557,-5.22427 l -13.77043,-3.637 -23.52655,1.0988 c -20.66697,0.96525 -23.94625,1.34644 -26.97957,3.13614 -1.89916,1.12053 -3.45302,2.79043 -3.45302,3.71088 0,0.92046 4.86865,6.16351 10.81921,11.65123 5.95057,5.48772 16.73048,15.49017 23.95535,22.22767 7.22487,6.7375 13.94373,12.24311 14.93079,12.23469 z M 188.14234,150 h 10.67806 l 5.3398,-4.19553 c 2.93689,-2.30754 5.86843,-4.89504 6.51453,-5.75 0.6461,-0.85496 2.11192,-5.5659 3.25736,-10.46876 1.95863,-8.3835 1.98352,-9.06825 0.41807,-11.5 -0.91552,-1.42214 -4.59147,-6.29821 -8.16879,-10.83571 L 199.67716,99 h -10.12483 c -8.1801,0 -11.26646,0.442203 -16.06848,2.30223 l -5.94365,2.30224 -3.2701,8.39111 c -1.79855,4.61512 -3.2701,9.34934 -3.2701,10.5205 0,1.17116 1.75923,6.51839 3.90941,11.88273 2.15017,5.36434 4.06267,9.87473 4.25,10.0231 0.18732,0.14837 2.13255,1.46414 4.32272,2.92393 C 177.1698,149.80373 178.2539,150 188.14234,150 Z"
       id="path4763"
       inkscape:connector-curvature="0" />
    <path
       style="fill:#2c2c2c"
       d="m 450.5,748.83336 c -1.65,-0.0359 -3.9,-0.27851 -5,-0.53903 -1.1,-0.26051 -8.99785,-2.1722 -17.55078,-4.24818 -11.18638,-2.71518 -19.18502,-5.40277 -28.5,-9.57616 -7.70583,-3.45245 -15.17628,-7.61036 -18.44922,-10.26849 -3.025,-2.45676 -6.4,-4.8408 -7.5,-5.29787 -1.1,-0.45707 -6.0439,-1.55682 -10.98646,-2.44388 -7.18846,-1.29016 -11.49013,-2.88183 -21.5,-7.95531 -11.5293,-5.84361 -14.39343,-6.80109 -36.41432,-12.17345 L 280.69844,690.5 l -5.31711,-6.65637 -5.31711,-6.65638 -14.22355,-4.74035 -14.22355,-4.74035 -4.05856,2.15542 c -2.23221,1.18548 -11.48356,8.2143 -20.55856,15.6196 -9.075,7.4053 -17.03594,13.47639 -17.69098,13.49131 -0.65504,0.0149 -1.47216,-0.42783 -1.81582,-0.98388 -0.34365,-0.55605 5.02405,-8.76855 11.92822,-18.25 6.90418,-9.48145 12.5588,-18.14325 12.56582,-19.24844 0.008,-1.29321 -7.20502,-9.18092 -20.23724,-22.12956 -11.1375,-11.06607 -22.1253,-21.86182 -24.41732,-23.99056 -3.50622,-3.25643 -5.62956,-7.20189 -13.3846,-24.87044 -5.0695,-11.55 -10.35534,-23.025 -11.74631,-25.5 -1.39097,-2.475 -3.56068,-5.62904 -4.82157,-7.00897 -1.2609,-1.37994 -11.11341,-20.47378 -21.89447,-42.43077 -18.134,-36.93219 -20.30899,-40.8539 -29.043823,-52.36867 C 87.99539,451.0569 87,449.30215 87,445.54667 87,442.36173 86.396685,440.78184 84.5,439 83.125,437.70825 82,436.08283 82,435.38795 c 0,-0.69488 -1.79367,-4.55394 -3.985934,-8.57569 -2.682967,-4.92194 -3.990533,-8.57817 -4,-11.18484 -0.0077,-2.12992 -2.08984,-11.80492 -4.626897,-21.5 C 65.526064,379.37264 64.876497,375.6037 65.401218,371 c 0.344784,-3.025 1.51229,-14.05 2.594458,-24.5 1.082168,-10.45 2.486984,-21.86647 3.121814,-25.36994 0.829573,-4.57821 1.993516,-7.32583 4.138035,-9.76831 2.174779,-2.47693 3.339192,-5.26352 4.294538,-10.27737 1.033889,-5.42605 2.23941,-8.11519 5.70754,-12.73169 2.418242,-3.21898 8.974562,-12.43662 14.5696,-20.48365 C 109.12638,254.49456 110,252.84339 110,248.64209 c 0,-3.68615 -0.44542,-4.87218 -2.25,-5.99118 -1.2375,-0.76735 -4.62566,-2.22136 -7.52926,-3.23111 -3.731272,-1.2976 -7.249902,-3.71831 -11.999995,-8.25563 C 84.524335,227.63333 75.5375,219.01314 68.25,212.00819 56.715591,200.92099 55,198.86151 55,196.10223 c 0,-2.56364 -0.670482,-3.56528 -3.506737,-5.23871 -2.072466,-1.22278 -3.768428,-3.15176 -4.146561,-4.71627 -0.351904,-1.45599 -3.282938,-7.94591 -6.513408,-14.42206 -3.230471,-6.47614 -6.598359,-14.80114 -7.484196,-18.5 -1.262494,-5.27161 -1.59132,-11.84141 -1.521356,-30.39603 0.07649,-20.28452 0.377701,-24.790881 2.105516,-31.500004 1.108943,-4.306036 4.165119,-13.334919 6.791501,-20.064186 4.710335,-12.068729 4.915538,-12.384747 15.097128,-23.25 C 64.830481,38.401476 66.554499,37 69.371887,37 71.147349,37 73.14,36.46 73.8,35.8 74.46,35.14 75,33.565 75,32.3 75,30.375764 75.526541,30 78.222884,30 c 1.772586,0 9.760086,-1.106783 17.75,-2.459517 C 103.9628,26.187749 117.475,24.36407 126,23.487864 c 8.525,-0.876206 25.85,-2.890032 38.5,-4.475168 12.65,-1.585137 36.59059,-4.35895 53.20131,-6.164029 26.34502,-2.8629001 30.94173,-3.1295592 36,-2.088391 3.18928,0.656464 11.48101,3.726769 18.42607,6.8229 11.49881,5.126206 13.3521,6.334836 20.73604,13.523077 4.45976,4.341561 8.512,7.893747 9.00497,7.893747 0.49297,0 2.75969,1.863377 5.03715,4.140837 2.27746,2.277461 6.63611,8.547842 9.68588,13.934181 3.04977,5.386338 6.25698,10.385461 7.12713,11.109162 1.16835,0.971706 9.84607,1.598088 33.18177,2.395151 L 388.5,71.658663 409,78.432636 c 11.275,3.725686 21.44254,7.640208 22.59454,8.698939 1.152,1.05873 2.72758,1.682045 3.5013,1.385144 0.77371,-0.296902 2.08116,-1.618754 2.90545,-2.93745 C 438.82558,84.260574 446.7,73.692189 455.5,62.093971 l 16,-21.087671 6.5,0.05372 c 6.45601,0.05336 6.92638,0.262017 69.5,30.831194 l 63,30.777476 0.26315,3.41565 c 0.2446,3.17497 -0.49531,4.11578 -10.5,13.35108 -5.91973,5.46448 -14.75711,13.67534 -19.63861,18.24636 -7.08209,6.63164 -8.64485,8.58883 -7.73412,9.68619 0.62775,0.75638 6.6467,4.52533 13.37547,8.37544 6.72876,3.85011 17.18411,9.53162 23.23411,12.62558 7.22045,3.69253 13.31927,7.71789 17.75,11.71539 6.40455,5.77833 6.75,6.31714 6.75,10.52804 0,4.04629 0.53538,5.01353 6.06537,10.95785 5.33564,5.73541 7.68206,9.81447 19.50302,33.90439 l 13.43765,27.38457 2.54807,23.32039 2.54807,23.32038 9.69891,9.26245 c 5.3344,5.09434 11.78292,10.64797 14.33003,12.34138 2.54712,1.69342 5.11413,4.13902 5.70447,5.43466 0.59033,1.29565 2.33133,3.14658 3.86887,4.11318 1.53755,0.9666 4.87065,3.45507 7.40689,5.52993 3.82398,3.12833 5.42714,5.61194 9.38904,14.54544 2.62773,5.92513 5.84012,12.6125 7.13865,14.86082 1.29853,2.24832 2.36096,4.8101 2.36096,5.69284 0,0.88274 0.87741,3.0932 1.9498,4.91214 1.07239,1.81894 5.12239,12.46537 9,23.65873 L 756,430.20314 v 16.82214 c 0,9.25218 -0.48412,19.21897 -1.07581,22.14843 -0.5917,2.92946 -1.70359,8.02629 -2.47088,11.32629 -0.76728,3.3 -2.36177,10.725 -3.54331,16.5 -1.18153,5.775 -3.59238,13.65 -5.35744,17.5 -1.76507,3.85 -3.96146,7.6176 -4.88088,8.37244 -0.91943,0.75485 -1.67168,2.05007 -1.67168,2.87828 0,0.8282 -1.35286,3.87038 -3.00635,6.76038 -1.65349,2.89 -3.67849,5.81238 -4.5,6.49417 -0.82151,0.68179 -1.49365,2.29583 -1.49365,3.58676 0,1.29092 -0.91177,3.97047 -2.02616,5.95454 -1.11439,1.98408 -4.60189,6.00524 -7.75,8.93592 -3.14811,2.93068 -9.54884,9.80661 -14.22384,15.27984 -5.76387,6.74801 -10.75328,11.43149 -15.5,14.54959 -3.85,2.52904 -10.825,6.47965 -15.5,8.77913 -4.675,2.29948 -10.525,4.91362 -13,5.80921 -2.475,0.89558 -9.9,4.50335 -16.5,8.01727 -6.6,3.51391 -12.33061,6.88248 -12.73469,7.4857 -0.40408,0.60322 -0.74158,6.10417 -0.75,12.22433 -0.0119,8.65734 -0.3483,11.4039 -1.51531,12.37244 -0.825,0.68469 -1.5,1.66984 -1.5,2.18922 0,0.51939 -3.59304,5.75179 -7.98454,11.62756 -6.85153,9.16727 -7.98673,11.25184 -8,14.69043 -0.0151,3.90257 -0.68792,4.67702 -25.76546,29.65563 l -25.75,25.64842 -6.10263,0.39752 c -5.66555,0.36905 -6.52502,0.76322 -12,5.50349 -5.46991,4.73587 -7.02087,5.44822 -21.39737,9.82782 l -15.5,4.72185 -25.5,1.31839 c -14.025,0.72511 -26.85,1.28898 -28.5,1.25303 z m 31,-47.98954 c 6.56531,0.13839 8.35159,-0.37872 28.76544,-8.32728 11.971,-4.66116 24.19323,-10.02787 27.16051,-11.92602 2.96729,-1.89815 7.27894,-5.17003 9.58146,-7.27085 2.30251,-2.10082 6.03343,-5.50717 8.29093,-7.56967 2.2575,-2.0625 4.44768,-3.75 4.86705,-3.75 0.41938,0 1.90373,-1.67946 3.29856,-3.73213 1.54538,-2.27424 2.53605,-5.12811 2.53605,-7.30572 0,-2.14652 0.89851,-4.77681 2.25,-6.58664 1.2375,-1.65717 3.825,-4.6323 5.75,-6.6114 1.925,-1.9791 4.47853,-5.54815 5.67452,-7.93123 1.53047,-3.04958 3.26656,-11.44116 5.86162,-28.33288 2.53005,-16.4685 4.19488,-24.57508 5.30518,-25.83255 0.88994,-1.00791 3.14467,-2.47041 5.0105,-3.25 1.86584,-0.7796 5.24997,-1.41583 7.5203,-1.41384 2.73376,0.002 10.88255,-2.57095 24.12788,-7.61943 11,-4.19267 20.71043,-8.2443 21.57874,-9.00361 0.86831,-0.75931 2.01448,-1.38057 2.54705,-1.38057 0.53257,0 2.74714,-1.85329 4.92126,-4.11843 2.17412,-2.26514 6.87795,-6.03863 10.45295,-8.38553 3.575,-2.34691 9.24494,-6.90612 12.59987,-10.13157 3.35493,-3.22546 6.8203,-7.26184 7.70084,-8.96974 0.88053,-1.7079 3.48492,-5.94162 5.78753,-9.40827 3.16743,-4.76866 4.24504,-7.42077 4.42676,-10.89473 0.1321,-2.52545 2.32026,-11.61296 4.86259,-20.19447 2.54233,-8.58151 4.62788,-17.58151 4.63456,-20 0.007,-2.41849 -0.91912,-12.49726 -2.05733,-22.39726 l -2.06947,-18 -7.17579,-16.5 c -3.94669,-9.075 -8.13456,-17.93492 -9.30638,-19.68871 -1.17183,-1.75379 -7.36845,-8.75791 -13.77028,-15.56472 l -11.6397,-12.37601 -14.7466,-6.70327 c -8.11063,-3.6868 -15.54375,-6.69518 -16.51804,-6.68528 -0.97429,0.01 -2.29366,1.16415 -2.93194,2.56502 -0.63828,1.40087 -11.09113,10.7631 -23.22856,20.80496 C 591.43063,376.39385 518.725,436.48344 442,499.8844 357.06451,570.07003 299.47766,618.35474 294.77306,623.32944 c -4.24982,4.49381 -7.73732,8.76679 -7.75,9.49552 -0.0188,1.0808 4.53786,1.21407 24.72694,0.72319 24.42574,-0.59388 24.87854,-0.64399 34.5616,-3.82496 9.61101,-3.1573 9.83589,-3.18304 11,-1.2591 0.65362,1.08026 2.3134,3.82363 3.6884,6.0964 1.375,2.27276 3.85495,6.3928 5.51099,9.15564 1.65605,2.76283 9.10274,11.26946 16.54822,18.9036 7.44547,7.63415 16.11238,16.05417 19.2598,18.71116 5.15607,4.35265 7.5956,5.45708 24.64259,11.15627 18.19972,6.08457 19.46474,6.36123 33.2292,7.26724 7.87006,0.51803 17.4592,1.00827 21.3092,1.08942 z M 256.62822,619.99158 c 1.47725,0.006 3.31251,-1.74363 6,-5.71955 2.12948,-3.15038 36.25009,-46.45737 75.82359,-96.23774 39.57349,-49.78037 75.01099,-95.12649 78.75,-100.76915 3.739,-5.64265 6.79819,-11.29829 6.79819,-12.56809 0,-1.26979 -0.95668,-5.20858 -2.12596,-8.75288 -1.16928,-3.54429 -2.63178,-6.9368 -3.25,-7.53891 -0.61822,-0.6021 -4.94904,-2.69166 -9.62404,-4.64345 -6.34436,-2.64874 -13.5721,-4.45861 -28.5,-7.13658 -11,-1.97332 -49.47424,-8.99627 -85.49831,-15.60655 C 258.97762,354.40841 229.16512,349 228.75169,349 228.33826,349 228,347.4299 228,345.51089 c 0,-3.10606 3.97398,-8.34825 36.19815,-47.75 C 284.10714,273.4174 305.02692,248.55 310.68656,242.5 c 5.65964,-6.05 10.29547,-11.6972 10.30185,-12.54933 0.008,-1.04038 -5.09112,-3.81602 -15.52188,-8.44949 -11.42899,-5.0769 -16.15827,-7.7062 -17.89806,-9.95067 -1.30052,-1.67778 -3.32799,-4.06301 -4.50548,-5.30051 -1.70255,-1.78931 -3.24262,-2.25 -7.52166,-2.25 h -5.38076 l -17.33028,16.75716 -17.33029,16.75716 -31.97332,13.41793 -31.97332,13.41794 -18.23609,16.05241 -18.23609,16.05241 -3.23107,9.02249 c -2.20553,6.15875 -4.23591,9.9747 -6.39689,12.0225 -1.7412,1.65 -3.88394,4.12563 -4.76164,5.50141 -1.12937,1.77024 -1.9115,7.03169 -2.67577,18 -0.59396,8.52422 -1.4617,21.57359 -1.9283,28.99859 l -0.84836,13.5 6.94085,21.1818 6.94085,21.18181 11.43529,12.31819 c 6.28941,6.77501 11.43722,12.80481 11.43958,13.39955 0.002,0.59474 3.26678,3.98808 7.25428,7.54076 4.89801,4.36391 10.33192,7.94497 16.75,11.0386 5.225,2.51855 11.79847,5.56557 14.60771,6.77116 l 5.1077,2.19199 0.5753,20.68807 c 0.31641,11.37844 0.63966,26.88612 0.71833,34.4615 l 0.14304,13.77344 8.30511,17.72656 c 4.56782,9.74962 8.6182,19.18384 9.00087,20.96495 0.47196,2.19674 2.35969,4.64296 5.86884,7.60514 2.84521,2.40172 8.72208,7.01945 13.05972,10.26162 4.33764,3.24217 10.86264,8.02857 14.5,10.63644 3.63736,2.60787 7.57108,4.74537 8.7416,4.75 z M 621.26974,330.74342 c 0.53327,-0.17776 2.04871,-3.19375 3.36765,-6.7022 1.31893,-3.50846 2.90681,-6.99202 3.52862,-7.74125 0.78732,-0.94866 0.92707,-4.96269 0.46033,-13.22144 -0.37108,-6.56617 -1.28167,-13.13554 -2.0402,-14.71887 C 625.83265,286.78685 624.90959,282.125 624.5349,278 623.98654,271.96297 622.69754,267.82431 617.92682,256.78296 614.66707,249.23858 612,242.34827 612,241.47116 c 0,-0.87712 -4.38358,-6.17945 -9.74128,-11.78296 C 596.90102,224.08469 587.26618,215.225 580.84798,210 573.02257,203.62941 565.28037,198.44118 557.34487,194.25 545.65108,188.07386 545.41566,188 537.42298,188 h -8.08825 l -3.40263,4.25 c -1.87145,2.3375 -18.82177,20.08553 -37.66737,39.44007 L 454,266.88014 v 8.02098 c 0,6.65933 0.32958,8.32466 1.94143,9.80992 1.06778,0.98393 5.68028,4.09766 10.25,6.91941 l 8.30857,5.13045 69,13.2025 c 37.95,7.26137 69.99637,13.43491 71.21417,13.71896 1.21779,0.28406 2.51036,1.48423 2.87238,2.66705 0.36203,1.18283 1.12069,2.72808 1.68592,3.43389 0.56524,0.70582 1.46401,1.13787 1.99727,0.96012 z M 365.06291,173.94811 c 0.8596,0.0285 2.69971,-1.18561 4.08914,-2.69811 1.38943,-1.5125 8.16331,-10.18234 15.05306,-19.26631 6.88975,-9.08398 13.26213,-17.12658 14.16085,-17.87245 C 399.26468,133.36537 400,131.74031 400,130.5 c 0,-1.24031 -0.64426,-2.7898 -1.43168,-3.4433 -0.78743,-0.6535 -8.06384,-2.94109 -16.16982,-5.08353 l -14.73813,-3.89533 -22.56071,1.0498 c -22.03324,1.02526 -22.65468,1.11292 -26.58018,3.74932 -2.21071,1.48473 -4.01948,3.26601 -4.01948,3.95839 0,0.69238 11.025,11.56433 24.5,24.15987 13.475,12.59555 25.20331,22.92435 26.06291,22.95289 z m -176.6735,-22.96711 9.88941,0.019 6.78836,-5.48474 c 3.7336,-3.01661 7.02488,-6.27911 7.31396,-7.25 0.28908,-0.97089 1.22158,-4.83068 2.07223,-8.57731 0.85065,-3.74663 1.54663,-7.64854 1.54663,-8.67092 0,-1.02237 -3.46995,-6.28195 -7.71099,-11.68795 -4.24105,-5.40599 -8.17855,-10.159689 -8.75,-10.563767 -0.57146,-0.404078 -5.07946,-0.741578 -10.0178,-0.75 -7.25431,-0.01237 -10.26941,0.477862 -15.69864,2.552487 l -6.71986,2.5678 -3.55435,9.1822 c -1.9549,5.05021 -3.55301,9.60986 -3.55136,10.13255 0.002,0.52268 1.64709,5.24768 3.65654,10.5 2.00944,5.25231 4.14694,10.18133 4.75,10.95339 0.60305,0.77206 3.12146,2.67601 5.59646,4.231 4.145,2.60422 5.28016,2.82876 14.38941,2.84626 z"
       id="path4761"
       inkscape:connector-curvature="0" />
    <path
       style="fill:#000000"
       d="m 450,747.89459 c -1.925,-0.0212 -10.84797,-1.80282 -19.82882,-3.95909 -12.38038,-2.97249 -19.63464,-5.40161 -30,-10.04563 -7.51915,-3.36882 -15.69618,-7.77165 -18.17118,-9.78405 -2.475,-2.01241 -5.23458,-4.22066 -6.13241,-4.90723 -0.89782,-0.68656 -6.17597,-2.11406 -11.72921,-3.17222 -8.19153,-1.56088 -12.31798,-3.05851 -21.8676,-7.93648 -10.68134,-5.45606 -14.05843,-6.58221 -36.48754,-12.16747 l -24.71677,-6.15492 -5.28323,-6.55888 -5.28324,-6.55888 -14.4504,-4.81706 -14.4504,-4.81707 -4.0496,1.97895 c -2.22728,1.08842 -11.4746,8.0477 -20.5496,15.46507 -9.075,7.41737 -17.0625,13.49833 -17.75,13.51325 -0.6875,0.0149 -1.23169,-0.31038 -1.20932,-0.72288 0.0224,-0.4125 5.6421,-8.4 12.48826,-17.75 6.84617,-9.35 12.45286,-17.86853 12.45932,-18.93007 0.007,-1.1467 -5.77194,-7.82201 -14.23826,-16.44682 -7.8375,-7.98422 -18.78687,-18.74298 -24.33193,-23.90835 l -10.08194,-9.39158 -9.33547,-21.16159 C 159.86615,578.02272 154.54189,566.475 153.16896,564 c -1.37292,-2.475 -3.53015,-5.63142 -4.79384,-7.01427 -1.26369,-1.38285 -11.12903,-20.49361 -21.92298,-42.46836 C 108.31891,477.60101 106.11108,473.6198 97.413392,462.154 89.361811,451.53994 88,449.19562 88,445.94909 c 0,-2.58973 -0.794276,-4.73958 -2.5,-6.76672 -1.375,-1.6341 -2.5,-3.32207 -2.5,-3.75106 0,-0.42899 -1.774566,-4.22664 -3.943481,-8.43923 -2.404479,-4.67011 -4.201795,-9.77308 -4.605376,-13.07566 -0.364043,-2.97903 -2.461871,-12.37142 -4.661841,-20.87198 -3.136489,-12.11922 -3.89415,-16.65243 -3.509849,-21 C 66.549006,368.995 67.734271,357.275 68.913374,346 c 1.179103,-11.275 2.618481,-22.88958 3.198616,-25.81018 0.666813,-3.35696 2.127514,-6.53194 3.971179,-8.63176 2.136425,-2.43326 3.277704,-5.23244 4.267407,-10.46655 0.790336,-4.17975 2.184013,-8.06765 3.358185,-9.36824 1.10394,-1.2228 6.756897,-9.01046 12.562128,-17.30592 5.805231,-8.29546 11.492461,-16.62046 12.638301,-18.5 1.14583,-1.87954 2.08502,-5.055 2.08707,-7.05657 0.002,-2.05039 -0.76028,-4.50279 -1.74626,-5.61724 -0.9625,-1.08792 -4.5357,-2.98262 -7.94045,-4.21044 -5.495894,-1.98194 -7.964218,-3.94265 -21.999995,-17.47567 C 70.6143,213.17363 61.8125,204.84686 59.75,203.05349 57.005382,200.66701 56,199.0041 56,196.85095 c 0,-1.79012 -0.960953,-3.90281 -2.454545,-5.3964 -1.35,-1.35 -2.890102,-2.45455 -3.422448,-2.45455 -0.532347,0 -1.515854,-1.6875 -2.185571,-3.75 -0.669718,-2.0625 -3.790111,-8.925 -6.934207,-15.25 -3.372018,-6.78351 -6.321993,-14.37091 -7.192791,-18.5 -1.116674,-5.29497 -1.403989,-12.60225 -1.179572,-30 0.223554,-17.33088 0.711613,-24.703456 1.98009,-29.911032 C 35.536831,87.7879 38.475919,79.032189 41.142263,72.131832 44.89809,62.411949 46.946659,58.562372 50.236229,55.042864 52.571567,52.544289 57.173281,47.6875 60.462261,44.25 65.365527,39.125316 67.019729,38 69.649683,38 c 1.764103,0 3.914603,-0.707143 4.778888,-1.571429 0.864286,-0.864285 1.573779,-2.326785 1.576651,-3.25 0.0044,-1.399737 2.869815,-2.134821 17.25,-4.425184 C 102.73985,27.24275 117.25,25.316859 125.5,24.47363 c 8.25,-0.843229 20.175,-2.228703 26.5,-3.07883 6.325,-0.850126 30.7706,-3.710373 54.32355,-6.356103 40.6574,-4.56709 43.10799,-4.736142 48.44659,-3.342039 3.09267,0.807608 11.08126,3.935511 17.75243,6.950895 10.37838,4.691053 13.23219,6.51975 19.76855,12.667482 4.20154,3.951731 9.92738,9.182198 12.72408,11.623261 3.42014,2.985217 6.88112,7.610642 10.57125,14.127941 3.01748,5.329306 6.41676,10.532072 7.55396,11.561705 1.87259,1.695451 5.10025,1.974235 34.21362,2.955151 l 32.14597,1.083092 20.13505,6.675943 c 11.07428,3.671768 20.69188,7.346877 21.37245,8.166907 C 431.68806,88.329066 433.2394,89 434.4549,89 c 1.40816,0 3.08717,-1.283852 4.62756,-3.53845 C 440.41211,83.515403 448.25,72.961505 456.5,62.008445 l 15,-19.914656 6.26093,-0.04689 c 6.21144,-0.04652 6.75883,0.195803 69.25,30.65623 62.91712,30.668051 62.98904,30.706611 62.96162,33.750001 -0.024,2.66276 -2.48262,5.3161 -19.50235,21.04688 -10.71119,9.89999 -19.36134,18.60766 -19.22255,19.35037 0.13879,0.7427 5.65235,4.49773 12.25235,8.3445 6.6,3.84678 17.26948,9.64605 23.70996,12.88727 7.38843,3.71828 14.25868,8.08674 18.6162,11.83714 6.57137,5.65581 6.92989,6.1901 7.39386,11.0187 0.43431,4.51997 1.10703,5.72406 6.15442,11.01572 4.92812,5.16663 7.43237,9.53602 19.21136,33.51979 l 13.54454,27.57874 2.42426,21.72388 c 1.33334,11.94813 2.65084,22.6896 2.92779,23.86993 0.27694,1.18034 5.49159,6.7286 11.58811,12.32948 6.09652,5.60088 12.62468,11.0921 14.50704,12.20272 1.88235,1.11062 3.42246,2.57141 3.42246,3.24621 0,0.6748 1.0415,2.20535 2.31445,3.40123 1.27295,1.19587 2.65472,2.17431 3.07059,2.17431 0.41588,0 2.91852,1.82334 5.56142,4.05187 3.51323,2.9624 5.6817,5.98731 8.06478,11.25 1.79272,3.95898 5.03591,11.02313 7.20709,15.69813 2.17117,4.675 5.01961,10.75 6.32985,13.5 1.31025,2.75 5.32292,13.49193 8.91705,23.87095 L 755,429.24189 v 17.80276 c 0,9.79153 -0.48412,20.1996 -1.07581,23.12906 -0.5917,2.92946 -1.70159,8.02629 -2.46643,11.32629 -0.76483,3.3 -2.32138,10.5 -3.45898,16 -1.23086,5.95084 -3.47929,12.83441 -5.55284,17 -1.91645,3.85 -5.23726,10.25504 -7.37958,14.23342 -2.14231,3.97838 -4.83364,8.42656 -5.98074,9.88486 -1.14709,1.45829 -2.0873,3.60325 -2.08936,4.76658 -0.002,1.16333 -0.88896,3.56698 -1.97089,5.34145 -1.08193,1.77446 -3.85019,4.92446 -6.15168,7 -2.3015,2.07553 -8.69716,8.9001 -14.2126,15.16572 -7.53361,8.5583 -12.03458,12.68598 -18.09457,16.5939 -4.43659,2.86103 -12.79152,7.30617 -18.56652,9.87809 -5.775,2.57192 -16.09839,7.47966 -22.94088,10.9061 -6.84248,3.42643 -13.25498,7.01738 -14.25,7.97988 -1.53018,1.48018 -1.80912,3.4491 -1.80912,12.76987 0,10.19808 -0.19804,11.33533 -2.65558,15.25 -1.46057,2.32657 -4.09767,6.03013 -5.86024,8.23013 -1.76257,2.2 -4.84256,6.413 -6.84442,9.36221 -2.53996,3.74195 -3.63976,6.46364 -3.63976,9.00736 0,3.43102 -1.48361,5.12789 -25.25721,28.88778 C 559.79687,724.68888 559.43408,725 555.30789,725 c -2.29773,0 -5.38188,0.45783 -6.85367,1.01741 -1.47179,0.55957 -5.09816,3.08673 -8.05859,5.61591 -4.71217,4.02573 -7.15836,5.14984 -19.63912,9.02485 L 506.5,745.08451 480,746.50884 c -14.575,0.78338 -28.075,1.40697 -30,1.38575 z m 31.67394,-46.0434 c 5.54873,0.13374 8.43481,-0.72784 28.5,-8.50814 12.27933,-4.76132 24.68812,-10.15545 27.57508,-11.98695 2.88696,-1.8315 6.93696,-4.87728 9,-6.76839 2.06304,-1.89112 6.67598,-5.94542 10.25098,-9.00957 3.575,-3.06414 7.2875,-7.02822 8.25,-8.80905 0.9625,-1.78084 1.75,-4.61998 1.75,-6.30921 0,-1.71231 1.11509,-4.58273 2.52007,-6.48708 1.38603,-1.87866 3.14003,-3.76271 3.89777,-4.18676 0.75773,-0.42405 3.00443,-3.22177 4.99266,-6.21716 1.98823,-2.99539 3.83456,-6.71128 4.10297,-8.25752 0.2684,-1.54625 2.09395,-12.92794 4.05678,-25.29266 1.96283,-12.36471 4.1,-23.12192 4.74926,-23.9049 0.64927,-0.78298 2.62854,-2.0289 4.39837,-2.7687 1.76984,-0.73981 4.99948,-1.3451 7.17699,-1.3451 2.5122,0 11.17588,-2.75044 23.70593,-7.52586 10.86076,-4.13923 21.35611,-8.48294 23.32301,-9.6527 1.96691,-1.16975 5.60119,-4.02675 8.07619,-6.34888 2.475,-2.32212 6.975,-5.79923 10,-7.7269 3.025,-1.92767 8.49018,-6.37154 12.14485,-9.87526 3.65467,-3.50372 7.60771,-8.1704 8.78455,-10.3704 1.17683,-2.2 3.69729,-6.475 5.60101,-9.5 2.27259,-3.61112 3.46274,-6.72803 3.46545,-9.07574 0.002,-1.96666 2.24625,-11.19166 4.98661,-20.5 2.74036,-9.30834 4.9859,-18.72426 4.9901,-20.92426 0.004,-2.2 -1.06345,-12.55 -2.37254,-23 l -2.38018,-19 -6.69956,-15 c -3.68476,-8.25 -7.65009,-16.575 -8.81183,-18.5 -1.16175,-1.925 -7.6209,-9.35 -14.35367,-16.5 l -12.2414,-13 -14.80669,-6.75884 c -8.14369,-3.71736 -15.56446,-6.75486 -16.4906,-6.75 -0.92615,0.005 -2.95115,1.78963 -4.5,3.96615 -1.54886,2.17651 -13.3911,12.65625 -26.3161,23.2883 -12.925,10.63205 -84.925,70.09326 -160,132.13603 -88.18513,72.87711 -139.58403,116.02556 -145.21305,121.90375 -6.89,7.195 -8.47633,9.38395 -7.58172,10.46189 0.92531,1.11494 5.60739,1.24956 25.71304,0.73932 24.04829,-0.61029 24.77115,-0.68994 33.31072,-3.67027 4.80095,-1.67554 9.33233,-2.81491 10.06975,-2.53194 0.73741,0.28298 4.06018,5.04876 7.38392,10.59064 4.7524,7.92396 9.01681,13.12504 19.96526,24.35056 7.65715,7.85092 16.38133,16.33849 19.38708,18.86126 4.88303,4.0984 7.5948,5.2914 25.465,11.20298 19.25288,6.36898 20.52298,6.64968 34,7.51434 7.7,0.49402 16.77827,0.96518 20.17394,1.04702 z M 256.70751,620.99158 c 1.5576,0.006 3.32404,-1.61878 6,-5.51861 2.08587,-3.03986 36.5392,-46.75524 76.56295,-97.14527 40.02375,-50.39004 75.68625,-96.06843 79.25,-101.50753 3.56375,-5.4391 6.45132,-10.88623 6.41682,-12.10472 -0.0345,-1.2185 -1.272,-5.57982 -2.75,-9.69183 l -2.68728,-7.47637 -8.9164,-3.90516 c -6.98995,-3.06142 -12.93151,-4.6402 -27.5,-7.30725 -10.22098,-1.87115 -48.0586,-8.78735 -84.0836,-15.36932 -36.025,-6.58198 -66.5125,-12.20042 -67.75,-12.48543 -1.71198,-0.39428 -2.25,-1.2284 -2.25,-3.48825 0,-2.42369 6.66006,-11.11234 36.20361,-47.23095 19.91199,-24.34349 40.72449,-49.11917 46.25,-55.05707 5.96125,-6.40616 10.04639,-11.6311 10.04639,-12.84946 0,-1.68316 -2.79061,-3.30672 -15.48183,-9.00722 -12.28929,-5.51996 -16.1042,-7.71299 -18.5,-10.63487 -1.65999,-2.02452 -3.80567,-4.47549 -4.76817,-5.4466 C 281.54527,203.55015 279.45293,203 276.0348,203 c -4.12539,0 -5.60537,0.53968 -8.75,3.19072 -2.08164,1.7549 -10.0848,9.32879 -17.7848,16.83086 l -14,13.64013 -14,5.85007 c -7.7,3.21754 -22.16943,9.30415 -32.15429,13.52579 l -18.15428,7.67572 -18.59572,16.3368 C 142.36807,289.03533 134,296.7114 134,297.10801 c 0,0.39661 -1.40266,4.39431 -3.11702,8.88377 -2.14989,5.62998 -4.3193,9.35297 -6.99188,11.99898 -2.13117,2.10997 -4.28213,4.90752 -4.7799,6.21677 -0.49778,1.30924 -1.38006,7.98565 -1.96062,14.83646 -0.58057,6.8508 -1.35408,19.93721 -1.71893,29.0809 l -0.66335,16.62488 6.86585,20.74955 6.86585,20.74954 10.38355,11.12557 c 5.71096,6.11906 11.21782,12.50318 12.23747,14.18692 1.01966,1.68375 4.74895,5.61884 8.28731,8.74466 3.53836,3.12582 7.4815,6.13464 8.76253,6.68626 1.28103,0.55163 3.00414,1.45985 3.82914,2.01828 0.825,0.55843 6.26515,3.21694 12.08923,5.90779 l 10.58922,4.89245 0.66078,16.75432 C 195.70265,505.77998 196,521.01295 196,530.41616 v 17.09673 l 7.08937,14.99356 c 3.89915,8.24645 8.21016,17.91855 9.58001,21.49355 1.36986,3.575 3.24214,7.34125 4.16063,8.36945 0.9185,1.0282 6.78103,5.7532 13.02786,10.5 6.24682,4.7468 14.34682,10.76426 18,13.37213 3.65317,2.60787 7.63551,4.74537 8.84964,4.75 z M 620.62129,331.82276 c 0.94539,-0.18888 3.25282,-4.05582 5.56296,-9.32276 l 3.94749,-9 -0.63151,-10.93839 c -0.34733,-6.01612 -1.13233,-11.86612 -1.74445,-13 -0.61211,-1.13389 -1.63518,-6.11431 -2.27349,-11.06762 -0.91478,-7.09881 -2.34159,-11.75775 -6.73755,-22 -3.06735,-7.14669 -5.90095,-14.11899 -6.2969,-15.49399 -0.39594,-1.375 -4.96961,-6.93635 -10.1637,-12.35857 -5.19409,-5.42221 -14.47038,-14.00369 -20.61397,-19.06997 -7.82982,-6.45681 -14.9515,-11.20901 -23.81499,-15.89143 C 545.41753,187.10945 545.08391,187 537.49333,187 h -7.71702 l -5.13815,5.73413 c -2.82599,3.15377 -19.97651,20.98287 -38.11226,39.62023 l -32.97411,33.88611 -0.38793,6.86533 c -0.21336,3.77593 -0.11614,7.94821 0.21604,9.27172 0.41308,1.64582 3.62325,4.3623 10.15678,8.59475 l 9.55281,6.18835 69.70526,13.41239 c 38.33789,7.37682 70.71775,13.64925 71.95525,13.93874 1.2375,0.2895 2.25,0.93849 2.25,1.4422 0,0.50372 0.45131,2.10289 1.00291,3.55371 0.61781,1.62495 1.62324,2.51393 2.61838,2.3151 z M 364.78164,175 c 0.42534,0 1.75358,-0.68659 2.95165,-1.52574 1.19807,-0.83916 7.89765,-9.05166 14.88795,-18.25 6.9903,-9.19835 13.98519,-18.20242 15.5442,-20.00906 1.55901,-1.80663 2.83456,-4.09939 2.83456,-5.09501 0,-0.99562 -0.7875,-2.5127 -1.75,-3.37128 -0.9625,-0.85859 -8.725,-3.37383 -17.25,-5.58942 l -15.5,-4.02835 -21.5,1.00021 c -20.80313,0.96779 -21.66206,1.09101 -26.5,3.80178 -2.75,1.54087 -5.12983,3.45491 -5.28851,4.25343 -0.1619,0.81475 7.93285,9.10088 18.44652,18.88265 10.30427,9.58693 21.79846,20.24329 25.54266,23.68079 3.7442,3.4375 7.15563,6.25 7.58097,6.25 z M 188.63611,152 h 9.16572 l 5.85425,-4.40071 c 3.21983,-2.4204 6.62069,-5.24763 7.55745,-6.28275 0.93677,-1.03511 2.62195,-5.82222 3.74484,-10.63801 1.1229,-4.81579 2.04163,-9.36678 2.04163,-10.11331 0,-0.74653 -3.64888,-6.01661 -8.10861,-11.71128 -4.45974,-5.69467 -8.62224,-10.684549 -9.25,-11.088627 C 199.01362,97.361235 194.45,97.052029 189.5,97.078189 c -7.35249,0.03886 -10.27907,0.547023 -15.98732,2.776015 l -6.98731,2.728456 -3.81233,9.89161 -3.81232,9.89161 3.79964,10.06706 c 2.0898,5.53688 4.92464,11.27578 6.29964,12.75311 1.375,1.47732 4.29334,3.61482 6.48519,4.75 C 178.662,151.58133 181.32961,152 188.63611,152 Z"
       id="path4759"
       inkscape:connector-curvature="0" />
  </g>
</svg>
